<svg width="64" height="64" viewBox="0 0 64 64" fill="none" xmlns="http://www.w3.org/2000/svg">
<g clip-path="url(#clip0_305_5971)">
<g style="mix-blend-mode:multiply">
<path d="M15.9638 22.6172H8.43224C3.63717 22.6172 -0.25 26.5043 -0.25 31.2992V33.0776C-0.25 37.8725 3.63717 41.7596 8.43224 41.7596H15.9638C20.7589 41.7596 24.6461 37.8725 24.6461 33.0776V31.2992C24.6461 26.5043 20.7589 22.6172 15.9638 22.6172Z" fill="#59E25D"/>
</g>
<path d="M41.125 16.2134V8.68203C41.125 3.88708 37.2378 0 32.4428 0L30.6643 0C25.8693 0 21.9821 3.88708 21.9821 8.68203V16.2134C21.9821 21.0084 25.8693 24.8955 30.6643 24.8955H32.4428C37.2378 24.8955 41.125 21.0084 41.125 16.2134Z" fill="#E261E5"/>
<g style="mix-blend-mode:multiply">
<path d="M47.5362 41.3789H55.0678C59.8628 41.3789 63.75 37.4918 63.75 32.6969V30.9185C63.75 26.1236 59.8628 22.2365 55.0678 22.2365L47.5362 22.2365C42.7411 22.2365 38.8539 26.1236 38.8539 30.9185V32.6969C38.8539 37.4918 42.7411 41.3789 47.5362 41.3789Z" fill="#59E25D"/>
</g>
<path d="M22.3672 47.7866V55.318C22.3672 60.1129 26.2544 64 31.0494 64H32.8278C37.6229 64 41.5101 60.1129 41.5101 55.318V47.7866C41.5101 42.9916 37.6229 39.1045 32.8278 39.1045H31.0494C26.2544 39.1045 22.3672 42.9916 22.3672 47.7866Z" fill="#E261E5"/>
<g style="mix-blend-mode:multiply">
<path d="M27.2149 14.2029L21.8893 8.8774C18.4986 5.48686 13.0014 5.48686 9.61073 8.8774L8.3532 10.1349C4.96258 13.5254 4.96258 19.0226 8.3532 22.4131L13.6788 27.7387C17.0695 31.1292 22.5668 31.1292 25.9574 27.7387L27.2149 26.4812C30.6055 23.0906 30.6055 17.5935 27.2149 14.2029Z" fill="#FFE228"/>
</g>
<g style="mix-blend-mode:multiply">
<path d="M49.5429 27.4685L54.8685 22.143C58.2592 18.7525 58.2592 13.2553 54.8685 9.86479L53.611 8.60729C50.2204 5.21674 44.7231 5.21674 41.3325 8.60729L36.0068 13.9328C32.6162 17.3233 32.6162 22.8205 36.0068 26.211L37.2644 27.4685C40.655 30.8591 46.1523 30.8591 49.5429 27.4685Z" fill="#3A93FF"/>
</g>
<g style="mix-blend-mode:multiply">
<path d="M36.2773 49.7932L41.6029 55.1187C44.9935 58.5092 50.4908 58.5092 53.8815 55.1187L55.139 53.8612C58.5296 50.4707 58.5296 44.9735 55.139 41.583L49.8133 36.2574C46.4227 32.8669 40.9254 32.8669 37.5348 36.2574L36.2773 37.5149C32.8866 40.9055 32.8866 46.4026 36.2773 49.7932Z" fill="#FFE228"/>
</g>
<g style="mix-blend-mode:multiply">
<path d="M13.9493 36.5275L8.62364 41.8531C5.23302 45.2436 5.23302 50.7408 8.62364 54.1313L9.88117 55.3888C13.2718 58.7794 18.7691 58.7794 22.1597 55.3888L27.4854 50.0633C30.876 46.6727 30.876 41.1756 27.4854 37.7851L26.2278 36.5275C22.8372 33.137 17.3399 33.137 13.9493 36.5275Z" fill="#3A93FF"/>
</g>
</g>
<defs>
<clipPath id="clip0_305_5971">
<rect width="64" height="64" fill="white"/>
</clipPath>
</defs>
</svg>
