<svg width="120" height="32" viewBox="0 0 120 32" fill="none" xmlns="http://www.w3.org/2000/svg">
<path d="M109.239 30.0086C103.074 30.0086 98.5043 26.0195 98.5043 20.0719C98.5043 14.0882 103.074 10.099 109.239 10.099C115.404 10.099 119.973 14.0882 119.973 20.0719C119.973 26.0195 115.404 30.0086 109.239 30.0086ZM109.239 22.8644C110.907 22.8644 111.85 21.6676 111.85 20.0719C111.85 18.4763 110.907 17.2432 109.239 17.2432C107.571 17.2432 106.591 18.4763 106.591 20.0719C106.591 21.6676 107.571 22.8644 109.239 22.8644Z" fill="#130E30"/>
<path d="M81.2995 21.7764V17.4971H79.45V10.6792H81.2995V5.05808H89.8218V10.6792H97.0749V17.4971H89.8218V21.5588C89.8218 22.1391 90.2208 22.538 90.801 22.538C91.3813 22.538 91.8165 22.1391 91.8165 21.3775V19.7818H97.1475V22.8644C97.1475 27.2162 93.5934 30.0086 89.2416 30.0086C84.4546 30.0086 81.2995 26.5634 81.2995 21.7764Z" fill="#130E30"/>
<path d="M62.2814 21.7764V17.4971H60.4319V10.6792H62.2814V5.05808H70.8038V10.6792H78.0569V17.4971H70.8038V21.5588C70.8038 22.1391 71.2027 22.538 71.783 22.538C72.3632 22.538 72.7984 22.1391 72.7984 21.3775V19.7818H78.1294V22.8644C78.1294 27.2162 74.5754 30.0086 70.2236 30.0086C65.4365 30.0086 62.2814 26.5634 62.2814 21.7764Z" fill="#130E30"/>
<path d="M54.5994 9.30113C51.8795 9.30113 49.9212 7.37907 49.9212 4.65917C49.9212 1.93927 51.8795 0.0172019 54.5994 0.0172019C57.3193 0.0172019 59.3139 1.93927 59.3139 4.65917C59.3139 7.37907 57.3193 9.30113 54.5994 9.30113ZM50.3564 10.6792H58.8425V29.4284H50.3564V10.6792Z" fill="#130E30"/>
<path d="M39.4618 2.99096H47.9841V29.4284H40.042L39.7882 27.325C38.5914 29.0295 36.8144 30.0086 34.5297 30.0086C29.924 30.0086 26.1524 26.0195 26.1524 20.0719C26.1524 14.0882 29.9965 10.099 34.7835 10.099C36.8507 10.099 38.4101 10.788 39.4618 11.9485V2.99096ZM36.9595 22.9369C38.6639 22.9369 39.6431 21.7039 39.6431 20.0719C39.6431 18.44 38.6639 17.1707 36.9595 17.1707C35.255 17.1707 34.2396 18.44 34.2396 20.0719C34.2396 21.7039 35.255 22.9369 36.9595 22.9369Z" fill="#130E30"/>
<path d="M4.96468 0C13.5477 4.47231e-06 20.5173 6.94068 20.5173 15.4881V16.5119C20.5173 25.0593 13.5477 32 4.96468 32H0V27.1703C1.97576 26.9921 9.24643 25.7966 10.2586 17.8261C7.38458 19.6491 2.98553 20.248 0 20.1676V0H4.96468Z" fill="#130E30"/>
</svg>
