<svg width="24" height="24" viewBox="0 0 24 24" fill="none" xmlns="http://www.w3.org/2000/svg">
<g clip-path="url(#clip0_495_19743)">
<path d="M24 12C24 16.45 21.58 20.33 18 22.4C16.24 23.42 14.19 24 12 24C9.81 24 7.76 23.42 6 22.4C2.42 20.33 0 16.45 0 12C0 7.55 2.42 3.67 6 1.6C7.76 0.58 9.81 0 12 0C14.19 0 16.24 0.58 18 1.6C21.58 3.67 24 7.55 24 12Z" fill="#D93F41"/>
<path d="M18 1.6V22.4C16.24 23.42 14.19 24 12 24C9.81 24 7.76 23.42 6 22.4C2.42 20.33 0 16.45 0 12C0 7.55 2.42 3.67 6 1.6C7.76 0.58 9.81 0 12 0C14.19 0 16.24 0.58 18 1.6Z" fill="white"/>
<path d="M6 1.60156V22.4016C2.42 20.3316 0 16.4516 0 12.0016C0 7.55156 2.42 3.67156 6 1.60156Z" fill="#0A228E"/>
</g>
<defs>
<clipPath id="clip0_495_19743">
<rect width="24" height="24" fill="white"/>
</clipPath>
</defs>
</svg>
