<svg width="24" height="24" viewBox="0 0 24 24" fill="none" xmlns="http://www.w3.org/2000/svg">
<g clip-path="url(#clip0_495_19748)">
<path d="M24 11.9883C24 12.8083 23.92 13.6083 23.76 14.3783C20.69 14.3783 17.62 14.3783 14.54 14.3783C14.44 14.3783 14.42 14.3983 14.42 14.4983C14.42 17.5783 14.42 20.6583 14.42 23.7383C13.7 23.8883 12.97 23.9683 12.21 23.9783H11.78C11.04 23.9683 10.31 23.8883 9.6 23.7383V14.4983C9.6 14.4116 9.55667 14.3683 9.47 14.3683H0.24C0.08 13.5983 0 12.7983 0 11.9783C0 11.1583 0.08 10.3383 0.25 9.55828C3.33 9.55828 6.41 9.55828 9.49 9.55828C9.59 9.55828 9.61 9.53828 9.61 9.43828C9.61 6.36828 9.61 3.29828 9.61 0.218281C10.26 0.0882813 10.94 0.00828125 11.63 -0.0117188H12.38C13.08 0.00828125 13.76 0.0882813 14.43 0.228281V9.42828C14.43 9.51495 14.4733 9.55828 14.56 9.55828C17.63 9.55828 20.69 9.55828 23.76 9.55828C23.92 10.3383 24.01 11.1483 24.01 11.9883H24Z" fill="#B62B35"/>
<path d="M21.7419 15.9883C21.8019 15.9883 21.8519 15.9983 21.9019 16.0283C22.2819 16.2583 22.6619 16.4883 23.0419 16.7083C23.3619 15.9683 23.6019 15.1883 23.7719 14.3783C20.7019 14.3783 17.6319 14.3783 14.5519 14.3783C14.4519 14.3783 14.4319 14.3983 14.4319 14.4983C14.4319 17.5783 14.4319 20.6583 14.4319 23.7383C14.9819 23.6283 15.5219 23.4783 16.0319 23.2883V17.1983C16.0319 17.1983 16.0919 17.2083 16.1119 17.2283C17.6919 18.1783 19.2819 19.1283 20.8619 20.0783C21.4019 19.4883 21.8919 18.8383 22.3119 18.1383C21.1519 17.4483 20.0019 16.7483 18.8419 16.0583C18.8119 16.0383 18.7719 16.0183 18.7119 15.9783H18.8219C19.7919 15.9783 20.7719 15.9783 21.7419 15.9783V15.9883ZM22.2919 5.80828C21.1219 6.50828 19.9619 7.20828 18.7919 7.90828C18.7319 7.93828 18.6819 7.95828 18.6119 7.95828C17.7819 7.95828 16.9519 7.95828 16.1219 7.95828C16.0419 7.95828 16.0319 7.92828 16.0219 7.85828C16.0119 7.72828 16.0519 7.66828 16.1619 7.59828C17.8919 6.55828 19.6319 5.51828 21.3619 4.47828C21.1919 4.26828 21.0119 4.05828 20.8319 3.85828C19.2619 4.79828 17.6919 5.73828 16.1219 6.68828C16.0919 6.70828 16.0719 6.72828 16.0219 6.72828V0.688281C15.5019 0.498281 14.9619 0.348281 14.4219 0.238281V9.43828C14.4219 9.52495 14.4652 9.56828 14.5519 9.56828C17.6219 9.56828 20.6819 9.56828 23.7519 9.56828C23.4719 8.21828 22.9719 6.95828 22.2819 5.81828L22.2919 5.80828Z" fill="#FEFEFE"/>
<path d="M9.61 9.44828C9.61 9.54828 9.59 9.56828 9.49 9.56828C6.41 9.56828 3.33 9.56828 0.25 9.56828C0.42 8.75828 0.67 7.96828 0.99 7.22828C1.37 7.45828 1.75 7.68828 2.13 7.90828C2.18 7.93828 2.23 7.95828 2.29 7.95828C3.27 7.95828 4.26 7.95828 5.24 7.95828C5.26 7.95828 5.29 7.97828 5.31 7.93828C5.29 7.92828 5.26 7.90828 5.24 7.89828C4.07 7.19828 2.9 6.49828 1.73 5.78828C2.15 5.09828 2.64 4.44828 3.18 3.84828C4.76 4.79828 6.35 5.74828 7.93 6.69828C7.95 6.70828 7.97 6.72828 8.01 6.72828V0.678281C8.53 0.498281 9.07 0.348281 9.61 0.238281C9.61 3.30828 9.61 6.37828 9.61 9.45828V9.44828Z" fill="#FEFEFE"/>
<path d="M9.60828 14.5072V23.7472C9.05828 23.6372 8.51828 23.4872 8.00828 23.3072V17.1872C8.00828 17.1872 7.95828 17.2172 7.93828 17.2272C6.34828 18.1872 4.74828 19.1372 3.15828 20.0972C2.97828 19.8972 2.79828 19.6872 2.62828 19.4772C4.36828 18.4372 6.10828 17.3872 7.84828 16.3472C7.95828 16.2872 8.02828 16.2272 8.01828 16.0772C8.00828 15.9972 7.99828 15.9772 7.90828 15.9772C7.07828 15.9772 6.25828 15.9772 5.42828 15.9772C5.35828 15.9772 5.29828 15.9972 5.23828 16.0272C4.05828 16.7372 2.87828 17.4372 1.70828 18.1472C1.01828 16.9972 0.518281 15.7272 0.238281 14.3672H9.47828C9.56495 14.3672 9.60828 14.4105 9.60828 14.4972V14.5072Z" fill="#FEFEFE"/>
<path d="M20.8612 20.087C19.5512 21.517 17.9013 22.637 16.0312 23.297V17.207C16.0312 17.207 16.0912 17.217 16.1112 17.237C17.6912 18.187 19.2812 19.137 20.8612 20.087Z" fill="#0A2065"/>
<path d="M7.99844 17.1992V23.3192C6.12844 22.6592 4.46844 21.5392 3.14844 20.1092C4.73844 19.1492 6.33844 18.1992 7.92844 17.2392C7.94844 17.2292 7.96844 17.2192 7.99844 17.1992Z" fill="#0A2065"/>
<path d="M20.8412 3.8775C19.2712 4.8175 17.7012 5.7575 16.1312 6.7075C16.1012 6.7275 16.0813 6.7475 16.0312 6.7475V0.6875C17.8913 1.3475 19.5312 2.4575 20.8412 3.8775Z" fill="#0A2065"/>
<path d="M8.00187 0.679688V6.74969C8.00187 6.74969 7.94187 6.72969 7.92188 6.71969C6.34187 5.76969 4.75188 4.81969 3.17188 3.86969C4.48187 2.44969 6.13187 1.33969 8.00187 0.679688Z" fill="#0A2065"/>
<path d="M7.83922 16.3483C6.09922 17.3883 4.35922 18.4383 2.61922 19.4783C2.28922 19.0583 1.97922 18.6183 1.69922 18.1583C2.87922 17.4483 4.05922 16.7483 5.22922 16.0383C5.28922 15.9983 5.34922 15.9883 5.41922 15.9883C6.24922 15.9883 7.06922 15.9883 7.89922 15.9883C7.97922 15.9883 7.99922 16.0083 8.00922 16.0883C8.02922 16.2283 7.94922 16.2883 7.83922 16.3583V16.3483Z" fill="#B62B35"/>
<path d="M22.291 5.80656C21.121 6.50656 19.961 7.20656 18.791 7.90656C18.731 7.93656 18.681 7.95656 18.611 7.95656C17.781 7.95656 16.951 7.95656 16.121 7.95656C16.041 7.95656 16.031 7.92656 16.021 7.85656C16.011 7.72656 16.051 7.66656 16.161 7.59656C17.891 6.55656 19.631 5.51656 21.361 4.47656C21.701 4.89656 22.001 5.33656 22.281 5.79656L22.291 5.80656Z" fill="#B62B35"/>
<path d="M5.30047 7.94859C5.30047 7.94859 5.25047 7.96859 5.23047 7.96859C4.25047 7.96859 3.26047 7.96859 2.28047 7.96859C2.22047 7.96859 2.17047 7.94859 2.12047 7.91859C1.74047 7.68859 1.36047 7.45859 0.980469 7.23859C1.19047 6.73859 1.44047 6.26859 1.72047 5.80859C2.89047 6.50859 4.06047 7.20859 5.23047 7.91859C5.25047 7.92859 5.28047 7.94859 5.30047 7.95859V7.94859Z" fill="#B62B35"/>
<path d="M23.0409 16.7066C22.8309 17.2066 22.5809 17.6866 22.3109 18.1366C21.1509 17.4466 20.0009 16.7466 18.8409 16.0566C18.8109 16.0366 18.7709 16.0166 18.7109 15.9766H18.8209C19.7909 15.9766 20.7709 15.9766 21.7409 15.9766C21.8009 15.9766 21.8509 15.9866 21.9009 16.0166C22.2809 16.2466 22.6609 16.4766 23.0409 16.6966V16.7066Z" fill="#B62B35"/>
</g>
<defs>
<clipPath id="clip0_495_19748">
<rect width="24" height="23.99" fill="white"/>
</clipPath>
</defs>
</svg>
