<svg width="800" height="600" viewBox="0 0 800 600" fill="none" xmlns="http://www.w3.org/2000/svg">
<rect width="800" height="600" fill="#EFF2E5"/>
<g style="mix-blend-mode:multiply">
<path d="M0 116.166C0 69.1302 38.1302 31 85.1661 31H533.834C580.87 31 619 69.1302 619 116.166V342.834C619 389.87 580.87 428 533.834 428H85.1661C38.1301 428 0 389.87 0 342.834V116.166Z" fill="#FFE228"/>
</g>
<g style="mix-blend-mode:multiply">
<path d="M212 174.166C212 127.13 250.13 89 297.166 89H714.834C761.87 89 800 127.13 800 174.166V477.834C800 524.87 761.87 563 714.834 563H297.166C250.13 563 212 524.87 212 477.834V174.166Z" fill="#E261E5"/>
</g>
<g filter="url(#filter0_d_15493_14955)">
<rect x="153" y="247" width="422" height="194" rx="12" fill="white" shape-rendering="crispEdges"/>
<path d="M189.58 277.091V296H187.29V277.091H189.58ZM203.992 281.818C203.881 280.883 203.431 280.156 202.644 279.639C201.856 279.122 200.889 278.864 199.744 278.864C198.907 278.864 198.175 278.999 197.547 279.27C196.925 279.541 196.439 279.913 196.088 280.387C195.743 280.861 195.571 281.4 195.571 282.003C195.571 282.508 195.691 282.942 195.931 283.305C196.177 283.662 196.491 283.96 196.873 284.2C197.255 284.434 197.655 284.628 198.073 284.782C198.492 284.93 198.876 285.05 199.227 285.142L201.148 285.659C201.64 285.788 202.188 285.967 202.791 286.195C203.401 286.422 203.982 286.733 204.536 287.127C205.096 287.515 205.558 288.013 205.921 288.623C206.284 289.232 206.466 289.98 206.466 290.866C206.466 291.888 206.198 292.812 205.663 293.636C205.133 294.461 204.358 295.117 203.336 295.603C202.32 296.089 201.086 296.332 199.634 296.332C198.279 296.332 197.107 296.114 196.116 295.677C195.131 295.24 194.355 294.63 193.789 293.849C193.229 293.067 192.912 292.159 192.838 291.125H195.202C195.263 291.839 195.503 292.43 195.922 292.898C196.347 293.359 196.882 293.704 197.528 293.932C198.181 294.153 198.883 294.264 199.634 294.264C200.508 294.264 201.292 294.123 201.988 293.839C202.684 293.55 203.234 293.15 203.641 292.639C204.047 292.122 204.25 291.519 204.25 290.83C204.25 290.202 204.075 289.691 203.724 289.297C203.373 288.903 202.911 288.583 202.339 288.337C201.766 288.09 201.148 287.875 200.483 287.69L198.156 287.026C196.679 286.601 195.51 285.995 194.648 285.207C193.786 284.419 193.355 283.388 193.355 282.114C193.355 281.055 193.641 280.132 194.214 279.344C194.792 278.55 195.568 277.934 196.541 277.497C197.519 277.054 198.612 276.832 199.818 276.832C201.037 276.832 202.12 277.051 203.068 277.488C204.016 277.919 204.767 278.51 205.321 279.261C205.881 280.012 206.177 280.864 206.207 281.818H203.992ZM225.665 286.545C225.665 288.54 225.305 290.263 224.585 291.716C223.865 293.169 222.877 294.289 221.621 295.077C220.366 295.865 218.931 296.259 217.319 296.259C215.706 296.259 214.272 295.865 213.016 295.077C211.76 294.289 210.772 293.169 210.052 291.716C209.332 290.263 208.972 288.54 208.972 286.545C208.972 284.551 209.332 282.828 210.052 281.375C210.772 279.922 211.76 278.802 213.016 278.014C214.272 277.226 215.706 276.832 217.319 276.832C218.931 276.832 220.366 277.226 221.621 278.014C222.877 278.802 223.865 279.922 224.585 281.375C225.305 282.828 225.665 284.551 225.665 286.545ZM223.449 286.545C223.449 284.908 223.175 283.526 222.628 282.4C222.086 281.273 221.35 280.421 220.421 279.842C219.498 279.264 218.464 278.974 217.319 278.974C216.174 278.974 215.137 279.264 214.207 279.842C213.284 280.421 212.548 281.273 212 282.4C211.459 283.526 211.188 284.908 211.188 286.545C211.188 288.183 211.459 289.565 212 290.691C212.548 291.817 213.284 292.67 214.207 293.249C215.137 293.827 216.174 294.116 217.319 294.116C218.464 294.116 219.498 293.827 220.421 293.249C221.35 292.67 222.086 291.817 222.628 290.691C223.175 289.565 223.449 288.183 223.449 286.545ZM242.103 277.091V296H239.813V279.491H239.703L235.086 282.557V280.23L239.813 277.091H242.103ZM246.578 292.122V290.239L254.888 277.091H256.254V280.009H255.331L249.053 289.943V290.091H260.243V292.122H246.578ZM255.479 296V291.55V290.673V277.091H257.658V296H255.479ZM269.351 296.259C267.96 296.259 266.775 295.88 265.796 295.123C264.817 294.36 264.069 293.255 263.552 291.808C263.035 290.356 262.777 288.601 262.777 286.545C262.777 284.502 263.035 282.757 263.552 281.31C264.076 279.858 264.827 278.75 265.805 277.987C266.79 277.217 267.972 276.832 269.351 276.832C270.729 276.832 271.908 277.217 272.887 277.987C273.872 278.75 274.623 279.858 275.14 281.31C275.663 282.757 275.925 284.502 275.925 286.545C275.925 288.601 275.666 290.356 275.149 291.808C274.632 293.255 273.884 294.36 272.905 295.123C271.927 295.88 270.742 296.259 269.351 296.259ZM269.351 294.227C270.729 294.227 271.801 293.562 272.564 292.233C273.327 290.903 273.709 289.008 273.709 286.545C273.709 284.908 273.533 283.514 273.182 282.363C272.838 281.212 272.339 280.335 271.687 279.732C271.04 279.128 270.262 278.827 269.351 278.827C267.984 278.827 266.916 279.501 266.147 280.849C265.377 282.191 264.993 284.089 264.993 286.545C264.993 288.183 265.165 289.574 265.51 290.719C265.854 291.864 266.35 292.735 266.996 293.332C267.649 293.929 268.434 294.227 269.351 294.227ZM285.081 296.259C283.69 296.259 282.505 295.88 281.526 295.123C280.547 294.36 279.799 293.255 279.282 291.808C278.765 290.356 278.507 288.601 278.507 286.545C278.507 284.502 278.765 282.757 279.282 281.31C279.806 279.858 280.557 278.75 281.535 277.987C282.52 277.217 283.702 276.832 285.081 276.832C286.459 276.832 287.638 277.217 288.617 277.987C289.602 278.75 290.353 279.858 290.87 281.31C291.393 282.757 291.655 284.502 291.655 286.545C291.655 288.601 291.396 290.356 290.879 291.808C290.362 293.255 289.614 294.36 288.635 295.123C287.657 295.88 286.472 296.259 285.081 296.259ZM285.081 294.227C286.459 294.227 287.531 293.562 288.294 292.233C289.057 290.903 289.439 289.008 289.439 286.545C289.439 284.908 289.263 283.514 288.912 282.363C288.568 281.212 288.069 280.335 287.417 279.732C286.77 279.128 285.992 278.827 285.081 278.827C283.714 278.827 282.646 279.501 281.877 280.849C281.107 282.191 280.723 284.089 280.723 286.545C280.723 288.183 280.895 289.574 281.24 290.719C281.584 291.864 282.08 292.735 282.726 293.332C283.379 293.929 284.164 294.227 285.081 294.227ZM301.291 277.091V296H299.001V279.491H298.89L294.274 282.557V280.23L299.001 277.091H301.291ZM192.756 328.295C191.426 328.295 190.281 327.982 189.321 327.354C188.361 326.726 187.622 325.861 187.105 324.759C186.588 323.657 186.33 322.399 186.33 320.983C186.33 319.543 186.594 318.272 187.124 317.17C187.659 316.062 188.404 315.197 189.358 314.575C190.318 313.947 191.438 313.634 192.719 313.634C193.716 313.634 194.615 313.818 195.415 314.188C196.215 314.557 196.871 315.074 197.381 315.739C197.892 316.403 198.209 317.179 198.332 318.065H196.153C195.987 317.419 195.618 316.847 195.045 316.348C194.479 315.843 193.716 315.591 192.756 315.591C191.906 315.591 191.161 315.812 190.521 316.256C189.887 316.693 189.392 317.311 189.035 318.112C188.684 318.906 188.509 319.838 188.509 320.909C188.509 322.005 188.681 322.959 189.026 323.771C189.376 324.584 189.869 325.215 190.503 325.664C191.143 326.113 191.894 326.338 192.756 326.338C193.322 326.338 193.836 326.24 194.298 326.043C194.759 325.846 195.15 325.562 195.47 325.193C195.79 324.824 196.018 324.381 196.153 323.864H198.332C198.209 324.701 197.905 325.455 197.418 326.126C196.938 326.79 196.301 327.32 195.507 327.714C194.719 328.102 193.802 328.295 192.756 328.295ZM206.759 328.295C205.479 328.295 204.355 327.991 203.389 327.381C202.429 326.772 201.678 325.92 201.136 324.824C200.601 323.728 200.333 322.448 200.333 320.983C200.333 319.506 200.601 318.216 201.136 317.114C201.678 316.013 202.429 315.157 203.389 314.548C204.355 313.938 205.479 313.634 206.759 313.634C208.039 313.634 209.16 313.938 210.12 314.548C211.086 315.157 211.837 316.013 212.373 317.114C212.914 318.216 213.185 319.506 213.185 320.983C213.185 322.448 212.914 323.728 212.373 324.824C211.837 325.92 211.086 326.772 210.12 327.381C209.16 327.991 208.039 328.295 206.759 328.295ZM206.759 326.338C207.732 326.338 208.532 326.089 209.16 325.59C209.788 325.092 210.252 324.436 210.554 323.624C210.855 322.811 211.006 321.931 211.006 320.983C211.006 320.035 210.855 319.152 210.554 318.333C210.252 317.514 209.788 316.853 209.16 316.348C208.532 315.843 207.732 315.591 206.759 315.591C205.787 315.591 204.986 315.843 204.359 316.348C203.731 316.853 203.266 317.514 202.964 318.333C202.663 319.152 202.512 320.035 202.512 320.983C202.512 321.931 202.663 322.811 202.964 323.624C203.266 324.436 203.731 325.092 204.359 325.59C204.986 326.089 205.787 326.338 206.759 326.338ZM215.991 328V313.818H218.097V316.034H218.281C218.577 315.277 219.054 314.689 219.712 314.271C220.371 313.846 221.162 313.634 222.085 313.634C223.021 313.634 223.799 313.846 224.421 314.271C225.049 314.689 225.538 315.277 225.889 316.034H226.037C226.4 315.302 226.945 314.72 227.671 314.289C228.397 313.852 229.268 313.634 230.284 313.634C231.552 313.634 232.589 314.031 233.396 314.825C234.202 315.612 234.605 316.84 234.605 318.509V328H232.426V318.509C232.426 317.462 232.14 316.714 231.567 316.265C230.995 315.816 230.321 315.591 229.545 315.591C228.548 315.591 227.776 315.893 227.228 316.496C226.68 317.093 226.406 317.85 226.406 318.767V328H224.19V318.287C224.19 317.481 223.929 316.831 223.405 316.339C222.882 315.84 222.208 315.591 221.383 315.591C220.817 315.591 220.288 315.742 219.795 316.043C219.309 316.345 218.915 316.763 218.614 317.299C218.318 317.828 218.17 318.441 218.17 319.136V328H215.991ZM238.069 333.318V313.818H240.174V316.071H240.433C240.593 315.825 240.814 315.511 241.097 315.129C241.387 314.741 241.799 314.397 242.335 314.095C242.876 313.787 243.609 313.634 244.532 313.634C245.726 313.634 246.779 313.932 247.69 314.529C248.601 315.126 249.312 315.973 249.823 317.068C250.334 318.164 250.589 319.456 250.589 320.946C250.589 322.448 250.334 323.75 249.823 324.852C249.312 325.947 248.604 326.797 247.699 327.4C246.794 327.997 245.751 328.295 244.569 328.295C243.658 328.295 242.929 328.145 242.381 327.843C241.833 327.535 241.411 327.187 241.116 326.8C240.821 326.406 240.593 326.08 240.433 325.821H240.248V333.318H238.069ZM240.211 320.909C240.211 321.98 240.368 322.925 240.682 323.744C240.996 324.556 241.454 325.193 242.058 325.655C242.661 326.11 243.4 326.338 244.274 326.338C245.185 326.338 245.945 326.098 246.554 325.618C247.17 325.132 247.631 324.479 247.939 323.661C248.253 322.836 248.41 321.919 248.41 320.909C248.41 319.912 248.256 319.013 247.948 318.213C247.647 317.407 247.188 316.77 246.573 316.302C245.963 315.828 245.197 315.591 244.274 315.591C243.387 315.591 242.642 315.816 242.039 316.265C241.436 316.708 240.981 317.33 240.673 318.13C240.365 318.924 240.211 319.85 240.211 320.909ZM255.572 309.091V328H253.393V309.091H255.572ZM259.043 328V313.818H261.222V328H259.043ZM260.151 311.455C259.726 311.455 259.36 311.31 259.052 311.021C258.75 310.731 258.6 310.384 258.6 309.977C258.6 309.571 258.75 309.223 259.052 308.934C259.36 308.645 259.726 308.5 260.151 308.5C260.575 308.5 260.939 308.645 261.24 308.934C261.548 309.223 261.702 309.571 261.702 309.977C261.702 310.384 261.548 310.731 261.24 311.021C260.939 311.31 260.575 311.455 260.151 311.455ZM268.866 328.332C267.967 328.332 267.152 328.163 266.419 327.825C265.687 327.48 265.105 326.984 264.674 326.338C264.243 325.686 264.028 324.898 264.028 323.974C264.028 323.162 264.188 322.503 264.508 321.999C264.828 321.488 265.256 321.088 265.791 320.798C266.327 320.509 266.918 320.294 267.564 320.152C268.217 320.004 268.872 319.887 269.531 319.801C270.392 319.69 271.091 319.607 271.627 319.552C272.168 319.49 272.562 319.389 272.808 319.247C273.061 319.106 273.187 318.859 273.187 318.509V318.435C273.187 317.524 272.938 316.816 272.439 316.311C271.947 315.806 271.199 315.554 270.196 315.554C269.155 315.554 268.34 315.782 267.749 316.237C267.158 316.693 266.742 317.179 266.502 317.696L264.434 316.957C264.803 316.096 265.296 315.425 265.911 314.945C266.533 314.458 267.21 314.12 267.943 313.929C268.681 313.732 269.408 313.634 270.122 313.634C270.577 313.634 271.1 313.689 271.691 313.8C272.288 313.904 272.864 314.123 273.418 314.455C273.978 314.788 274.443 315.289 274.812 315.96C275.181 316.631 275.366 317.53 275.366 318.656V328H273.187V326.08H273.076C272.928 326.387 272.682 326.717 272.338 327.067C271.993 327.418 271.534 327.717 270.962 327.963C270.389 328.209 269.691 328.332 268.866 328.332ZM269.198 326.375C270.06 326.375 270.786 326.206 271.377 325.867C271.974 325.529 272.424 325.092 272.725 324.556C273.033 324.021 273.187 323.457 273.187 322.866V320.872C273.095 320.983 272.892 321.085 272.578 321.177C272.27 321.263 271.913 321.34 271.507 321.408C271.107 321.469 270.716 321.525 270.334 321.574C269.959 321.617 269.654 321.654 269.42 321.685C268.854 321.759 268.324 321.879 267.832 322.045C267.346 322.205 266.952 322.448 266.65 322.774C266.355 323.094 266.207 323.531 266.207 324.085C266.207 324.842 266.487 325.415 267.047 325.803C267.613 326.184 268.33 326.375 269.198 326.375ZM281.002 319.469V328H278.823V313.818H280.928V316.034H281.113C281.445 315.314 281.95 314.735 282.627 314.298C283.304 313.855 284.178 313.634 285.249 313.634C286.209 313.634 287.05 313.83 287.77 314.224C288.49 314.612 289.05 315.203 289.45 315.997C289.85 316.785 290.05 317.782 290.05 318.989V328H287.871V319.136C287.871 318.022 287.582 317.154 287.003 316.533C286.425 315.905 285.631 315.591 284.621 315.591C283.926 315.591 283.304 315.742 282.756 316.043C282.215 316.345 281.787 316.785 281.473 317.364C281.159 317.942 281.002 318.644 281.002 319.469ZM299.273 328.295C297.944 328.295 296.799 327.982 295.839 327.354C294.879 326.726 294.14 325.861 293.623 324.759C293.106 323.657 292.847 322.399 292.847 320.983C292.847 319.543 293.112 318.272 293.641 317.17C294.177 316.062 294.922 315.197 295.876 314.575C296.836 313.947 297.956 313.634 299.236 313.634C300.234 313.634 301.132 313.818 301.933 314.188C302.733 314.557 303.388 315.074 303.899 315.739C304.41 316.403 304.727 317.179 304.85 318.065H302.671C302.505 317.419 302.136 316.847 301.563 316.348C300.997 315.843 300.234 315.591 299.273 315.591C298.424 315.591 297.679 315.812 297.039 316.256C296.405 316.693 295.91 317.311 295.553 318.112C295.202 318.906 295.026 319.838 295.026 320.909C295.026 322.005 295.199 322.959 295.543 323.771C295.894 324.584 296.387 325.215 297.021 325.664C297.661 326.113 298.412 326.338 299.273 326.338C299.84 326.338 300.354 326.24 300.815 326.043C301.277 325.846 301.668 325.562 301.988 325.193C302.308 324.824 302.536 324.381 302.671 323.864H304.85C304.727 324.701 304.422 325.455 303.936 326.126C303.456 326.79 302.819 327.32 302.025 327.714C301.237 328.102 300.32 328.295 299.273 328.295ZM313.462 328.295C312.095 328.295 310.916 327.994 309.925 327.391C308.94 326.781 308.18 325.932 307.645 324.842C307.115 323.747 306.851 322.473 306.851 321.02C306.851 319.567 307.115 318.287 307.645 317.179C308.18 316.065 308.925 315.197 309.879 314.575C310.839 313.947 311.96 313.634 313.24 313.634C313.979 313.634 314.708 313.757 315.428 314.003C316.148 314.249 316.804 314.649 317.395 315.203C317.986 315.751 318.457 316.477 318.807 317.382C319.158 318.287 319.334 319.401 319.334 320.724V321.648H308.402V319.764H317.118C317.118 318.964 316.958 318.25 316.638 317.622C316.324 316.994 315.874 316.499 315.29 316.136C314.711 315.772 314.028 315.591 313.24 315.591C312.372 315.591 311.621 315.806 310.987 316.237C310.359 316.662 309.876 317.216 309.538 317.899C309.199 318.582 309.03 319.315 309.03 320.097V321.352C309.03 322.423 309.214 323.331 309.584 324.076C309.959 324.815 310.479 325.378 311.144 325.766C311.809 326.147 312.581 326.338 313.462 326.338C314.034 326.338 314.551 326.258 315.013 326.098C315.48 325.932 315.884 325.686 316.222 325.359C316.561 325.027 316.822 324.615 317.007 324.122L319.112 324.713C318.89 325.427 318.518 326.055 317.995 326.597C317.472 327.132 316.825 327.551 316.056 327.852C315.287 328.148 314.422 328.295 313.462 328.295Z" fill="#130E30"/>
<path d="M185.616 354.141V352.818H193.496V354.141H190.32V363H188.788V354.141H185.616ZM196.948 363.154C196.232 363.154 195.607 362.99 195.073 362.662C194.54 362.334 194.125 361.875 193.83 361.285C193.535 360.695 193.388 360.005 193.388 359.217C193.388 358.424 193.535 357.732 193.83 357.138C194.125 356.545 194.54 356.085 195.073 355.756C195.607 355.428 196.232 355.264 196.948 355.264C197.664 355.264 198.288 355.428 198.822 355.756C199.356 356.085 199.77 356.545 200.065 357.138C200.36 357.732 200.507 358.424 200.507 359.217C200.507 360.005 200.36 360.695 200.065 361.285C199.77 361.875 199.356 362.334 198.822 362.662C198.288 362.99 197.664 363.154 196.948 363.154ZM196.953 361.906C197.417 361.906 197.801 361.784 198.106 361.538C198.411 361.293 198.636 360.967 198.782 360.559C198.931 360.151 199.006 359.702 199.006 359.212C199.006 358.724 198.931 358.277 198.782 357.869C198.636 357.458 198.411 357.129 198.106 356.88C197.801 356.631 197.417 356.507 196.953 356.507C196.485 356.507 196.097 356.631 195.789 356.88C195.484 357.129 195.257 357.458 195.108 357.869C194.962 358.277 194.889 358.724 194.889 359.212C194.889 359.702 194.962 360.151 195.108 360.559C195.257 360.967 195.484 361.293 195.789 361.538C196.097 361.784 196.485 361.906 196.953 361.906ZM205.451 355.364V356.557H201.28V355.364H205.451ZM202.399 353.534H203.885V360.758C203.885 361.046 203.928 361.263 204.014 361.409C204.101 361.552 204.212 361.649 204.347 361.702C204.487 361.752 204.638 361.777 204.8 361.777C204.919 361.777 205.024 361.769 205.113 361.752C205.203 361.736 205.272 361.722 205.322 361.712L205.59 362.94C205.504 362.973 205.382 363.007 205.222 363.04C205.063 363.076 204.865 363.096 204.626 363.099C204.235 363.106 203.87 363.036 203.532 362.891C203.194 362.745 202.921 362.519 202.712 362.214C202.503 361.91 202.399 361.527 202.399 361.066V353.534ZM209.038 363.169C208.554 363.169 208.116 363.08 207.725 362.901C207.334 362.718 207.024 362.455 206.796 362.11C206.57 361.765 206.458 361.343 206.458 360.842C206.458 360.411 206.54 360.057 206.706 359.778C206.872 359.5 207.096 359.28 207.377 359.117C207.659 358.955 207.974 358.832 208.322 358.749C208.67 358.666 209.025 358.603 209.386 358.56C209.843 358.507 210.214 358.464 210.499 358.431C210.785 358.395 210.992 358.337 211.121 358.257C211.25 358.178 211.315 358.048 211.315 357.869V357.835C211.315 357.4 211.192 357.064 210.947 356.825C210.705 356.587 210.344 356.467 209.863 356.467C209.363 356.467 208.968 356.578 208.68 356.8C208.395 357.019 208.198 357.263 208.088 357.531L206.691 357.213C206.857 356.749 207.099 356.375 207.417 356.089C207.739 355.801 208.108 355.592 208.526 355.463C208.943 355.33 209.383 355.264 209.843 355.264C210.148 355.264 210.471 355.301 210.813 355.374C211.157 355.443 211.479 355.572 211.777 355.761C212.079 355.95 212.326 356.22 212.518 356.572C212.71 356.92 212.806 357.372 212.806 357.929V363H211.355V361.956H211.295C211.199 362.148 211.055 362.337 210.862 362.523C210.67 362.708 210.423 362.862 210.122 362.985C209.82 363.108 209.459 363.169 209.038 363.169ZM209.361 361.976C209.772 361.976 210.123 361.895 210.415 361.732C210.71 361.57 210.934 361.358 211.086 361.096C211.242 360.831 211.32 360.547 211.32 360.246V359.261C211.267 359.314 211.164 359.364 211.012 359.411C210.862 359.454 210.692 359.492 210.499 359.525C210.307 359.555 210.12 359.583 209.938 359.609C209.755 359.633 209.603 359.652 209.48 359.669C209.192 359.705 208.928 359.767 208.69 359.853C208.455 359.939 208.266 360.063 208.123 360.226C207.984 360.385 207.914 360.597 207.914 360.862C207.914 361.23 208.05 361.509 208.322 361.697C208.594 361.883 208.94 361.976 209.361 361.976ZM215.993 352.818V363H214.506V352.818H215.993ZM223.996 363.149C223.38 363.149 222.83 362.992 222.346 362.677C221.865 362.359 221.487 361.906 221.212 361.32C220.94 360.73 220.805 360.022 220.805 359.197C220.805 358.371 220.942 357.665 221.217 357.079C221.496 356.492 221.877 356.043 222.361 355.732C222.845 355.42 223.393 355.264 224.006 355.264C224.48 355.264 224.861 355.344 225.15 355.503C225.441 355.659 225.667 355.841 225.826 356.05C225.988 356.259 226.114 356.442 226.204 356.602H226.293V352.818H227.78V363H226.328V361.812H226.204C226.114 361.974 225.985 362.16 225.816 362.369C225.65 362.577 225.422 362.76 225.13 362.915C224.838 363.071 224.46 363.149 223.996 363.149ZM224.324 361.881C224.752 361.881 225.113 361.769 225.408 361.543C225.707 361.315 225.932 360.998 226.084 360.594C226.24 360.189 226.318 359.719 226.318 359.182C226.318 358.652 226.242 358.187 226.089 357.79C225.937 357.392 225.713 357.082 225.418 356.86C225.123 356.638 224.759 356.527 224.324 356.527C223.877 356.527 223.504 356.643 223.206 356.875C222.908 357.107 222.682 357.424 222.53 357.825C222.381 358.226 222.306 358.678 222.306 359.182C222.306 359.692 222.382 360.151 222.535 360.559C222.687 360.967 222.913 361.29 223.211 361.528C223.512 361.764 223.884 361.881 224.324 361.881ZM232.838 363.154C232.122 363.154 231.497 362.99 230.964 362.662C230.43 362.334 230.016 361.875 229.721 361.285C229.426 360.695 229.278 360.005 229.278 359.217C229.278 358.424 229.426 357.732 229.721 357.138C230.016 356.545 230.43 356.085 230.964 355.756C231.497 355.428 232.122 355.264 232.838 355.264C233.554 355.264 234.179 355.428 234.712 355.756C235.246 356.085 235.66 356.545 235.955 357.138C236.25 357.732 236.398 358.424 236.398 359.217C236.398 360.005 236.25 360.695 235.955 361.285C235.66 361.875 235.246 362.334 234.712 362.662C234.179 362.99 233.554 363.154 232.838 363.154ZM232.843 361.906C233.307 361.906 233.691 361.784 233.996 361.538C234.301 361.293 234.527 360.967 234.672 360.559C234.822 360.151 234.896 359.702 234.896 359.212C234.896 358.724 234.822 358.277 234.672 357.869C234.527 357.458 234.301 357.129 233.996 356.88C233.691 356.631 233.307 356.507 232.843 356.507C232.376 356.507 231.988 356.631 231.68 356.88C231.375 357.129 231.148 357.458 230.998 357.869C230.853 358.277 230.78 358.724 230.78 359.212C230.78 359.702 230.853 360.151 230.998 360.559C231.148 360.967 231.375 361.293 231.68 361.538C231.988 361.784 232.376 361.906 232.843 361.906ZM240.993 363.154C240.254 363.154 239.618 362.987 239.084 362.652C238.554 362.314 238.146 361.848 237.861 361.255C237.576 360.662 237.434 359.982 237.434 359.217C237.434 358.441 237.58 357.757 237.871 357.163C238.163 356.567 238.574 356.101 239.104 355.766C239.635 355.432 240.259 355.264 240.979 355.264C241.559 355.264 242.076 355.372 242.53 355.587C242.984 355.799 243.35 356.098 243.628 356.482C243.91 356.867 244.078 357.316 244.131 357.83H242.684C242.604 357.472 242.422 357.163 242.137 356.905C241.855 356.646 241.477 356.517 241.003 356.517C240.589 356.517 240.226 356.626 239.915 356.845C239.606 357.061 239.366 357.369 239.194 357.77C239.021 358.168 238.935 358.638 238.935 359.182C238.935 359.739 239.02 360.219 239.189 360.624C239.358 361.028 239.596 361.341 239.905 361.563C240.216 361.785 240.583 361.896 241.003 361.896C241.285 361.896 241.54 361.845 241.769 361.742C242.001 361.636 242.195 361.485 242.351 361.29C242.51 361.094 242.621 360.859 242.684 360.584H244.131C244.078 361.078 243.917 361.518 243.648 361.906C243.38 362.294 243.02 362.599 242.569 362.821C242.122 363.043 241.597 363.154 240.993 363.154ZM250.278 359.833V355.364H251.769V363H250.307V361.678H250.228C250.052 362.085 249.77 362.425 249.383 362.697C248.998 362.965 248.519 363.099 247.946 363.099C247.455 363.099 247.021 362.992 246.643 362.776C246.269 362.558 245.974 362.234 245.758 361.807C245.546 361.379 245.44 360.851 245.44 360.221V355.364H246.927V360.042C246.927 360.562 247.071 360.977 247.359 361.285C247.648 361.593 248.022 361.747 248.483 361.747C248.761 361.747 249.038 361.678 249.313 361.538C249.592 361.399 249.822 361.189 250.004 360.907C250.19 360.625 250.281 360.267 250.278 359.833ZM253.486 363V355.364H254.913V356.607H255.008C255.167 356.186 255.427 355.857 255.788 355.622C256.15 355.384 256.582 355.264 257.086 355.264C257.596 355.264 258.024 355.384 258.368 355.622C258.717 355.861 258.973 356.189 259.139 356.607H259.219C259.401 356.199 259.691 355.874 260.089 355.632C260.486 355.387 260.96 355.264 261.511 355.264C262.203 355.264 262.768 355.481 263.206 355.915C263.647 356.35 263.867 357.004 263.867 357.879V363H262.381V358.018C262.381 357.501 262.24 357.127 261.958 356.895C261.676 356.663 261.34 356.547 260.949 356.547C260.465 356.547 260.089 356.696 259.82 356.994C259.552 357.289 259.418 357.669 259.418 358.133V363H257.936V357.924C257.936 357.51 257.807 357.177 257.548 356.925C257.29 356.673 256.953 356.547 256.539 356.547C256.257 356.547 255.997 356.621 255.758 356.771C255.523 356.916 255.333 357.12 255.187 357.382C255.044 357.644 254.973 357.947 254.973 358.292V363H253.486ZM268.871 363.154C268.118 363.154 267.47 362.993 266.927 362.672C266.386 362.347 265.969 361.891 265.674 361.305C265.382 360.715 265.236 360.024 265.236 359.232C265.236 358.449 265.382 357.76 265.674 357.163C265.969 356.567 266.38 356.101 266.907 355.766C267.437 355.432 268.057 355.264 268.766 355.264C269.197 355.264 269.615 355.335 270.019 355.478C270.423 355.621 270.786 355.844 271.108 356.149C271.429 356.454 271.683 356.85 271.869 357.337C272.054 357.821 272.147 358.41 272.147 359.102V359.629H266.077V358.516H270.69C270.69 358.125 270.611 357.778 270.452 357.477C270.293 357.172 270.069 356.931 269.78 356.756C269.495 356.58 269.161 356.492 268.776 356.492C268.359 356.492 267.994 356.595 267.682 356.8C267.374 357.003 267.136 357.268 266.967 357.596C266.801 357.921 266.718 358.274 266.718 358.655V359.525C266.718 360.035 266.807 360.469 266.986 360.827C267.169 361.185 267.422 361.459 267.747 361.648C268.072 361.833 268.451 361.926 268.886 361.926C269.167 361.926 269.424 361.886 269.656 361.807C269.888 361.724 270.089 361.601 270.258 361.439C270.427 361.277 270.556 361.076 270.645 360.837L272.052 361.091C271.94 361.505 271.738 361.868 271.446 362.18C271.158 362.488 270.795 362.728 270.357 362.901C269.923 363.07 269.427 363.154 268.871 363.154ZM275.003 358.466V363H273.516V355.364H274.943V356.607H275.038C275.213 356.202 275.488 355.877 275.863 355.632C276.241 355.387 276.716 355.264 277.29 355.264C277.81 355.264 278.266 355.374 278.657 355.592C279.048 355.808 279.351 356.129 279.567 356.557C279.782 356.984 279.89 357.513 279.89 358.143V363H278.403V358.322C278.403 357.768 278.259 357.336 277.971 357.024C277.682 356.709 277.286 356.552 276.783 356.552C276.438 356.552 276.131 356.626 275.863 356.776C275.598 356.925 275.387 357.143 275.231 357.432C275.079 357.717 275.003 358.062 275.003 358.466ZM285.168 355.364V356.557H280.997V355.364H285.168ZM282.116 353.534H283.602V360.758C283.602 361.046 283.645 361.263 283.731 361.409C283.817 361.552 283.928 361.649 284.064 361.702C284.204 361.752 284.354 361.777 284.517 361.777C284.636 361.777 284.741 361.769 284.83 361.752C284.919 361.736 284.989 361.722 285.039 361.712L285.307 362.94C285.221 362.973 285.098 363.007 284.939 363.04C284.78 363.076 284.581 363.096 284.343 363.099C283.952 363.106 283.587 363.036 283.249 362.891C282.911 362.745 282.638 362.519 282.429 362.214C282.22 361.91 282.116 361.527 282.116 361.066V353.534ZM292.132 357.228L290.784 357.467C290.728 357.294 290.639 357.13 290.516 356.974C290.397 356.819 290.234 356.691 290.029 356.592C289.823 356.492 289.566 356.442 289.258 356.442C288.837 356.442 288.486 356.537 288.204 356.726C287.922 356.911 287.782 357.152 287.782 357.447C287.782 357.702 287.876 357.907 288.065 358.063C288.254 358.219 288.559 358.347 288.98 358.446L290.193 358.724C290.895 358.887 291.419 359.137 291.764 359.475C292.108 359.813 292.281 360.252 292.281 360.793C292.281 361.25 292.148 361.658 291.883 362.016C291.621 362.37 291.255 362.649 290.784 362.851C290.317 363.053 289.775 363.154 289.159 363.154C288.304 363.154 287.606 362.972 287.066 362.607C286.525 362.239 286.194 361.717 286.071 361.041L287.508 360.822C287.598 361.197 287.782 361.48 288.06 361.673C288.338 361.862 288.701 361.956 289.149 361.956C289.636 361.956 290.025 361.855 290.317 361.653C290.609 361.447 290.755 361.197 290.755 360.902C290.755 360.663 290.665 360.463 290.486 360.3C290.31 360.138 290.04 360.015 289.676 359.933L288.383 359.649C287.67 359.487 287.144 359.228 286.802 358.874C286.464 358.519 286.295 358.07 286.295 357.526C286.295 357.076 286.421 356.681 286.673 356.343C286.925 356.005 287.273 355.741 287.717 355.553C288.161 355.36 288.67 355.264 289.243 355.264C290.068 355.264 290.718 355.443 291.192 355.801C291.666 356.156 291.979 356.631 292.132 357.228Z" fill="#130E30"/>
<path d="M351.621 363.139C350.938 363.139 350.328 363.022 349.791 362.786C349.257 362.551 348.835 362.224 348.523 361.807C348.215 361.386 348.049 360.899 348.026 360.345H349.587C349.607 360.647 349.708 360.909 349.89 361.131C350.076 361.349 350.318 361.518 350.616 361.638C350.915 361.757 351.246 361.817 351.611 361.817C352.012 361.817 352.366 361.747 352.675 361.608C352.986 361.469 353.23 361.275 353.405 361.026C353.581 360.774 353.669 360.484 353.669 360.156C353.669 359.815 353.581 359.515 353.405 359.256C353.233 358.995 352.979 358.789 352.645 358.64C352.313 358.491 351.912 358.416 351.442 358.416H350.581V357.163H351.442C351.819 357.163 352.151 357.095 352.436 356.96C352.724 356.824 352.95 356.635 353.112 356.393C353.274 356.147 353.356 355.861 353.356 355.533C353.356 355.218 353.284 354.944 353.142 354.712C353.003 354.477 352.804 354.293 352.545 354.161C352.29 354.028 351.988 353.962 351.64 353.962C351.309 353.962 350.999 354.023 350.711 354.146C350.426 354.265 350.194 354.437 350.015 354.663C349.836 354.885 349.74 355.152 349.726 355.463H348.24C348.256 354.913 348.419 354.429 348.727 354.011C349.039 353.594 349.45 353.267 349.96 353.032C350.47 352.797 351.037 352.679 351.66 352.679C352.313 352.679 352.877 352.807 353.351 353.062C353.828 353.314 354.196 353.65 354.454 354.071C354.716 354.492 354.845 354.953 354.842 355.453C354.845 356.023 354.686 356.507 354.365 356.905C354.047 357.303 353.622 357.569 353.092 357.705V357.785C353.768 357.888 354.292 358.156 354.663 358.59C355.038 359.024 355.223 359.563 355.22 360.206C355.223 360.766 355.068 361.268 354.753 361.712C354.441 362.156 354.015 362.506 353.475 362.761C352.935 363.013 352.317 363.139 351.621 363.139ZM356.605 361.011V359.768L361.005 352.818H361.985V354.648H361.363L358.216 359.629V359.709H364.247V361.011H356.605ZM361.433 363V360.634L361.443 360.067V352.818H362.9V363H361.433Z" fill="#130E30"/>
<circle cx="191" cy="385" r="6" fill="#3A93FF"/>
<path d="M214.307 378.818V389H213.114L207.565 381.006H207.466V389H206.233V378.818H207.426L212.994 386.832H213.094V378.818H214.307ZM219.537 389.159C218.801 389.159 218.166 388.997 217.632 388.672C217.102 388.344 216.693 387.886 216.404 387.3C216.119 386.71 215.977 386.024 215.977 385.241C215.977 384.459 216.119 383.77 216.404 383.173C216.693 382.573 217.094 382.106 217.608 381.771C218.125 381.433 218.728 381.264 219.417 381.264C219.815 381.264 220.208 381.33 220.596 381.463C220.983 381.596 221.336 381.811 221.654 382.109C221.973 382.404 222.226 382.795 222.415 383.283C222.604 383.77 222.699 384.37 222.699 385.082V385.58H216.812V384.565H221.505C221.505 384.134 221.419 383.75 221.247 383.412C221.078 383.074 220.836 382.807 220.521 382.612C220.209 382.416 219.842 382.318 219.417 382.318C218.95 382.318 218.546 382.434 218.204 382.666C217.866 382.895 217.606 383.193 217.424 383.561C217.241 383.929 217.15 384.323 217.15 384.744V385.42C217.15 385.997 217.25 386.486 217.449 386.887C217.651 387.285 217.931 387.588 218.289 387.797C218.647 388.002 219.063 388.105 219.537 388.105C219.845 388.105 220.123 388.062 220.372 387.976C220.624 387.886 220.841 387.754 221.023 387.578C221.205 387.399 221.346 387.177 221.446 386.912L222.579 387.23C222.46 387.615 222.259 387.953 221.978 388.244C221.696 388.533 221.348 388.758 220.934 388.92C220.519 389.08 220.054 389.159 219.537 389.159ZM227.405 389.159C226.669 389.159 226.035 388.997 225.501 388.672C224.971 388.344 224.561 387.886 224.273 387.3C223.988 386.71 223.845 386.024 223.845 385.241C223.845 384.459 223.988 383.77 224.273 383.173C224.561 382.573 224.962 382.106 225.476 381.771C225.993 381.433 226.596 381.264 227.286 381.264C227.683 381.264 228.076 381.33 228.464 381.463C228.852 381.596 229.205 381.811 229.523 382.109C229.841 382.404 230.095 382.795 230.284 383.283C230.472 383.77 230.567 384.37 230.567 385.082V385.58H224.681V384.565H229.374C229.374 384.134 229.288 383.75 229.115 383.412C228.946 383.074 228.704 382.807 228.389 382.612C228.078 382.416 227.71 382.318 227.286 382.318C226.818 382.318 226.414 382.434 226.073 382.666C225.735 382.895 225.474 383.193 225.292 383.561C225.11 383.929 225.019 384.323 225.019 384.744V385.42C225.019 385.997 225.118 386.486 225.317 386.887C225.519 387.285 225.799 387.588 226.157 387.797C226.515 388.002 226.931 388.105 227.405 388.105C227.713 388.105 227.992 388.062 228.24 387.976C228.492 387.886 228.709 387.754 228.892 387.578C229.074 387.399 229.215 387.177 229.314 386.912L230.448 387.23C230.328 387.615 230.128 387.953 229.846 388.244C229.564 388.533 229.216 388.758 228.802 388.92C228.388 389.08 227.922 389.159 227.405 389.159ZM234.955 389.159C234.319 389.159 233.757 388.998 233.27 388.677C232.783 388.352 232.402 387.895 232.126 387.305C231.851 386.711 231.714 386.01 231.714 385.202C231.714 384.4 231.851 383.704 232.126 383.114C232.402 382.524 232.784 382.068 233.275 381.746C233.765 381.425 234.332 381.264 234.975 381.264C235.472 381.264 235.865 381.347 236.153 381.513C236.445 381.675 236.667 381.861 236.82 382.07C236.975 382.275 237.096 382.444 237.183 382.577H237.282V378.818H238.455V389H237.322V387.827H237.183C237.096 387.966 236.974 388.142 236.815 388.354C236.656 388.562 236.429 388.75 236.134 388.915C235.839 389.078 235.446 389.159 234.955 389.159ZM235.114 388.105C235.585 388.105 235.983 387.982 236.308 387.737C236.632 387.489 236.879 387.146 237.048 386.708C237.217 386.267 237.302 385.759 237.302 385.182C237.302 384.612 237.219 384.113 237.053 383.685C236.888 383.254 236.642 382.92 236.317 382.681C235.993 382.439 235.592 382.318 235.114 382.318C234.617 382.318 234.203 382.446 233.871 382.701C233.543 382.953 233.296 383.296 233.131 383.73C232.968 384.161 232.887 384.645 232.887 385.182C232.887 385.725 232.97 386.219 233.136 386.663C233.305 387.104 233.553 387.455 233.881 387.717C234.213 387.976 234.624 388.105 235.114 388.105ZM246.392 389.179C245.908 389.179 245.469 389.088 245.074 388.906C244.68 388.72 244.367 388.453 244.135 388.105C243.903 387.754 243.787 387.33 243.787 386.832C243.787 386.395 243.873 386.04 244.045 385.768C244.217 385.493 244.448 385.278 244.736 385.122C245.025 384.966 245.343 384.85 245.691 384.774C246.042 384.695 246.395 384.632 246.75 384.585C247.214 384.526 247.59 384.481 247.878 384.451C248.17 384.418 248.382 384.363 248.515 384.287C248.65 384.211 248.718 384.078 248.718 383.889V383.849C248.718 383.359 248.584 382.978 248.316 382.706C248.051 382.434 247.648 382.298 247.108 382.298C246.548 382.298 246.108 382.421 245.79 382.666C245.472 382.911 245.248 383.173 245.119 383.452L244.005 383.054C244.204 382.59 244.469 382.229 244.801 381.97C245.136 381.708 245.5 381.526 245.895 381.423C246.292 381.317 246.683 381.264 247.068 381.264C247.313 381.264 247.595 381.294 247.913 381.354C248.235 381.41 248.544 381.528 248.843 381.707C249.144 381.886 249.395 382.156 249.593 382.517C249.792 382.878 249.892 383.362 249.892 383.969V389H248.718V387.966H248.659C248.579 388.132 248.447 388.309 248.261 388.498C248.075 388.687 247.829 388.848 247.52 388.98C247.212 389.113 246.836 389.179 246.392 389.179ZM246.571 388.125C247.035 388.125 247.426 388.034 247.744 387.852C248.065 387.669 248.307 387.434 248.47 387.146C248.636 386.857 248.718 386.554 248.718 386.236V385.162C248.669 385.222 248.559 385.276 248.39 385.326C248.225 385.372 248.032 385.414 247.814 385.45C247.598 385.483 247.388 385.513 247.182 385.54C246.98 385.563 246.816 385.583 246.69 385.599C246.385 385.639 246.1 385.704 245.835 385.793C245.573 385.879 245.361 386.01 245.199 386.186C245.039 386.358 244.96 386.594 244.96 386.892C244.96 387.3 245.111 387.608 245.412 387.817C245.717 388.022 246.103 388.125 246.571 388.125ZM255.074 381.364V382.358H251.117V381.364H255.074ZM252.27 379.534H253.444V386.812C253.444 387.144 253.492 387.393 253.588 387.558C253.687 387.721 253.813 387.83 253.966 387.886C254.121 387.939 254.285 387.966 254.458 387.966C254.587 387.966 254.693 387.959 254.776 387.946C254.859 387.929 254.925 387.916 254.975 387.906L255.213 388.96C255.134 388.99 255.023 389.02 254.88 389.05C254.738 389.083 254.557 389.099 254.338 389.099C254.007 389.099 253.682 389.028 253.364 388.886C253.049 388.743 252.787 388.526 252.579 388.234C252.373 387.943 252.27 387.575 252.27 387.131V379.534ZM259.88 381.364V382.358H255.923V381.364H259.88ZM257.076 379.534H258.25V386.812C258.25 387.144 258.298 387.393 258.394 387.558C258.493 387.721 258.619 387.83 258.772 387.886C258.927 387.939 259.091 387.966 259.264 387.966C259.393 387.966 259.499 387.959 259.582 387.946C259.665 387.929 259.731 387.916 259.781 387.906L260.019 388.96C259.94 388.99 259.829 389.02 259.686 389.05C259.544 389.083 259.363 389.099 259.144 389.099C258.813 389.099 258.488 389.028 258.17 388.886C257.855 388.743 257.593 388.526 257.384 388.234C257.179 387.943 257.076 387.575 257.076 387.131V379.534ZM264.485 389.159C263.749 389.159 263.114 388.997 262.581 388.672C262.05 388.344 261.641 387.886 261.353 387.3C261.068 386.71 260.925 386.024 260.925 385.241C260.925 384.459 261.068 383.77 261.353 383.173C261.641 382.573 262.042 382.106 262.556 381.771C263.073 381.433 263.676 381.264 264.365 381.264C264.763 381.264 265.156 381.33 265.544 381.463C265.932 381.596 266.285 381.811 266.603 382.109C266.921 382.404 267.174 382.795 267.363 383.283C267.552 383.77 267.647 384.37 267.647 385.082V385.58H261.76V384.565H266.454C266.454 384.134 266.367 383.75 266.195 383.412C266.026 383.074 265.784 382.807 265.469 382.612C265.158 382.416 264.79 382.318 264.365 382.318C263.898 382.318 263.494 382.434 263.152 382.666C262.814 382.895 262.554 383.193 262.372 383.561C262.19 383.929 262.098 384.323 262.098 384.744V385.42C262.098 385.997 262.198 386.486 262.397 386.887C262.599 387.285 262.879 387.588 263.237 387.797C263.595 388.002 264.011 388.105 264.485 388.105C264.793 388.105 265.071 388.062 265.32 387.976C265.572 387.886 265.789 387.754 265.971 387.578C266.154 387.399 266.294 387.177 266.394 386.912L267.527 387.23C267.408 387.615 267.208 387.953 266.926 388.244C266.644 388.533 266.296 388.758 265.882 388.92C265.468 389.08 265.002 389.159 264.485 389.159ZM270.325 384.406V389H269.152V381.364H270.285V382.557H270.384C270.563 382.169 270.835 381.857 271.2 381.622C271.564 381.384 272.035 381.264 272.612 381.264C273.129 381.264 273.581 381.37 273.969 381.582C274.357 381.791 274.658 382.109 274.874 382.537C275.089 382.961 275.197 383.498 275.197 384.148V389H274.024V384.227C274.024 383.627 273.868 383.16 273.556 382.825C273.245 382.487 272.817 382.318 272.274 382.318C271.899 382.318 271.564 382.399 271.269 382.562C270.978 382.724 270.747 382.961 270.578 383.273C270.409 383.584 270.325 383.962 270.325 384.406ZM280.382 381.364V382.358H276.425V381.364H280.382ZM277.578 379.534H278.751V386.812C278.751 387.144 278.799 387.393 278.895 387.558C278.995 387.721 279.121 387.83 279.273 387.886C279.429 387.939 279.593 387.966 279.766 387.966C279.895 387.966 280.001 387.959 280.084 387.946C280.167 387.929 280.233 387.916 280.283 387.906L280.521 388.96C280.442 388.99 280.331 389.02 280.188 389.05C280.046 389.083 279.865 389.099 279.646 389.099C279.315 389.099 278.99 389.028 278.672 388.886C278.357 388.743 278.095 388.526 277.886 388.234C277.681 387.943 277.578 387.575 277.578 387.131V379.534ZM281.867 389V381.364H283.04V389H281.867ZM282.463 380.091C282.235 380.091 282.038 380.013 281.872 379.857C281.709 379.701 281.628 379.514 281.628 379.295C281.628 379.077 281.709 378.889 281.872 378.734C282.038 378.578 282.235 378.5 282.463 378.5C282.692 378.5 282.888 378.578 283.05 378.734C283.216 378.889 283.299 379.077 283.299 379.295C283.299 379.514 283.216 379.701 283.05 379.857C282.888 380.013 282.692 380.091 282.463 380.091ZM288.011 389.159C287.322 389.159 286.717 388.995 286.197 388.667C285.68 388.339 285.275 387.88 284.984 387.29C284.695 386.7 284.551 386.01 284.551 385.222C284.551 384.426 284.695 383.732 284.984 383.138C285.275 382.545 285.68 382.085 286.197 381.756C286.717 381.428 287.322 381.264 288.011 381.264C288.701 381.264 289.304 381.428 289.821 381.756C290.341 382.085 290.746 382.545 291.034 383.138C291.326 383.732 291.472 384.426 291.472 385.222C291.472 386.01 291.326 386.7 291.034 387.29C290.746 387.88 290.341 388.339 289.821 388.667C289.304 388.995 288.701 389.159 288.011 389.159ZM288.011 388.105C288.535 388.105 288.966 387.971 289.304 387.702C289.642 387.434 289.892 387.081 290.055 386.643C290.217 386.206 290.298 385.732 290.298 385.222C290.298 384.711 290.217 384.236 290.055 383.795C289.892 383.354 289.642 382.998 289.304 382.726C288.966 382.454 288.535 382.318 288.011 382.318C287.488 382.318 287.057 382.454 286.719 382.726C286.381 382.998 286.131 383.354 285.968 383.795C285.806 384.236 285.725 384.711 285.725 385.222C285.725 385.732 285.806 386.206 285.968 386.643C286.131 387.081 286.381 387.434 286.719 387.702C287.057 387.971 287.488 388.105 288.011 388.105ZM294.156 384.406V389H292.983V381.364H294.116V382.557H294.216C294.395 382.169 294.666 381.857 295.031 381.622C295.396 381.384 295.866 381.264 296.443 381.264C296.96 381.264 297.412 381.37 297.8 381.582C298.188 381.791 298.49 382.109 298.705 382.537C298.92 382.961 299.028 383.498 299.028 384.148V389H297.855V384.227C297.855 383.627 297.699 383.16 297.388 382.825C297.076 382.487 296.648 382.318 296.105 382.318C295.73 382.318 295.396 382.399 295.101 382.562C294.809 382.724 294.579 382.961 294.41 383.273C294.241 383.584 294.156 383.962 294.156 384.406Z" fill="#130E30"/>
<path d="M360.559 378.679C360.977 378.682 361.394 378.762 361.812 378.918C362.23 379.073 362.611 379.332 362.955 379.693C363.3 380.051 363.577 380.54 363.786 381.16C363.994 381.78 364.099 382.557 364.099 383.491C364.099 384.396 364.013 385.2 363.84 385.903C363.671 386.602 363.426 387.192 363.105 387.673C362.786 388.153 362.399 388.518 361.941 388.766C361.487 389.015 360.973 389.139 360.4 389.139C359.83 389.139 359.321 389.027 358.874 388.801C358.43 388.572 358.065 388.256 357.78 387.852C357.498 387.444 357.318 386.972 357.238 386.435H358.451C358.561 386.902 358.778 387.288 359.102 387.593C359.431 387.895 359.863 388.045 360.4 388.045C361.186 388.045 361.805 387.702 362.259 387.016C362.717 386.33 362.945 385.361 362.945 384.108H362.866C362.68 384.386 362.46 384.627 362.205 384.829C361.95 385.031 361.666 385.187 361.355 385.296C361.043 385.406 360.712 385.46 360.36 385.46C359.777 385.46 359.242 385.316 358.754 385.028C358.271 384.736 357.883 384.337 357.591 383.83C357.303 383.319 357.159 382.736 357.159 382.08C357.159 381.456 357.298 380.886 357.576 380.369C357.858 379.849 358.252 379.435 358.759 379.126C359.27 378.818 359.87 378.669 360.559 378.679ZM360.559 379.773C360.142 379.773 359.765 379.877 359.431 380.086C359.099 380.291 358.836 380.57 358.64 380.921C358.448 381.269 358.352 381.655 358.352 382.08C358.352 382.504 358.445 382.89 358.63 383.238C358.819 383.583 359.076 383.858 359.401 384.063C359.729 384.265 360.102 384.366 360.519 384.366C360.834 384.366 361.128 384.305 361.399 384.183C361.671 384.057 361.908 383.886 362.11 383.67C362.316 383.452 362.477 383.205 362.593 382.93C362.709 382.651 362.767 382.361 362.767 382.06C362.767 381.662 362.67 381.289 362.478 380.941C362.289 380.593 362.027 380.311 361.693 380.096C361.361 379.88 360.983 379.773 360.559 379.773Z" fill="#130E30"/>
<circle cx="191" cy="411" r="6" fill="#59E25D"/>
<path d="M214.824 409.909C214.824 410.983 214.63 411.911 214.242 412.693C213.854 413.475 213.322 414.079 212.646 414.503C211.97 414.927 211.198 415.139 210.33 415.139C209.461 415.139 208.689 414.927 208.013 414.503C207.337 414.079 206.805 413.475 206.417 412.693C206.029 411.911 205.835 410.983 205.835 409.909C205.835 408.835 206.029 407.907 206.417 407.125C206.805 406.343 207.337 405.74 208.013 405.315C208.689 404.891 209.461 404.679 210.33 404.679C211.198 404.679 211.97 404.891 212.646 405.315C213.322 405.74 213.854 406.343 214.242 407.125C214.63 407.907 214.824 408.835 214.824 409.909ZM213.631 409.909C213.631 409.027 213.483 408.283 213.188 407.677C212.897 407.07 212.5 406.611 212 406.3C211.503 405.988 210.946 405.832 210.33 405.832C209.713 405.832 209.155 405.988 208.654 406.3C208.157 406.611 207.761 407.07 207.466 407.677C207.174 408.283 207.028 409.027 207.028 409.909C207.028 410.791 207.174 411.535 207.466 412.141C207.761 412.748 208.157 413.207 208.654 413.518C209.155 413.83 209.713 413.986 210.33 413.986C210.946 413.986 211.503 413.83 212 413.518C212.5 413.207 212.897 412.748 213.188 412.141C213.483 411.535 213.631 410.791 213.631 409.909ZM216.617 415V404.818H217.85V409.869H217.969L222.543 404.818H224.154L219.878 409.412L224.154 415H222.662L219.123 410.267L217.85 411.699V415H216.617Z" fill="#130E30"/>
<path d="M349.34 415V414.105L352.701 410.426C353.095 409.995 353.42 409.621 353.675 409.303C353.93 408.981 354.119 408.679 354.242 408.398C354.368 408.113 354.431 407.814 354.431 407.503C354.431 407.145 354.345 406.835 354.172 406.573C354.003 406.311 353.771 406.109 353.476 405.967C353.181 405.824 352.85 405.753 352.482 405.753C352.091 405.753 351.749 405.834 351.458 405.996C351.169 406.156 350.946 406.379 350.787 406.668C350.631 406.956 350.553 407.294 350.553 407.682H349.38C349.38 407.085 349.517 406.562 349.792 406.111C350.067 405.66 350.442 405.309 350.916 405.057C351.393 404.805 351.928 404.679 352.522 404.679C353.118 404.679 353.647 404.805 354.108 405.057C354.568 405.309 354.93 405.648 355.191 406.076C355.453 406.504 355.584 406.979 355.584 407.503C355.584 407.877 355.516 408.244 355.38 408.602C355.248 408.956 355.016 409.352 354.684 409.79C354.356 410.224 353.9 410.754 353.317 411.381L351.03 413.827V413.906H355.763V415H349.34ZM360.718 415.139C360.135 415.139 359.61 415.023 359.142 414.791C358.675 414.559 358.3 414.241 358.019 413.837C357.737 413.432 357.583 412.972 357.556 412.455H358.749C358.796 412.915 359.005 413.296 359.376 413.598C359.75 413.896 360.198 414.045 360.718 414.045C361.136 414.045 361.507 413.948 361.832 413.752C362.16 413.557 362.417 413.288 362.602 412.947C362.791 412.602 362.886 412.213 362.886 411.778C362.886 411.334 362.788 410.938 362.593 410.59C362.4 410.239 362.135 409.962 361.797 409.76C361.459 409.558 361.073 409.455 360.639 409.452C360.327 409.448 360.007 409.496 359.679 409.596C359.351 409.692 359.081 409.816 358.869 409.969L357.715 409.83L358.332 404.818H363.622V405.912H359.366L359.008 408.915H359.068C359.276 408.749 359.538 408.612 359.853 408.502C360.168 408.393 360.496 408.338 360.838 408.338C361.461 408.338 362.016 408.487 362.503 408.786C362.994 409.08 363.378 409.485 363.656 409.999C363.938 410.512 364.079 411.099 364.079 411.759C364.079 412.408 363.933 412.988 363.642 413.499C363.353 414.006 362.955 414.407 362.448 414.702C361.941 414.993 361.365 415.139 360.718 415.139Z" fill="#130E30"/>
<path d="M443.177 359L456.188 333.261V333.034H441.188V329.909H459.824V333.205L446.87 359H443.177ZM472.553 359.398C471.36 359.379 470.167 359.152 468.974 358.716C467.781 358.28 466.692 357.546 465.707 356.514C464.722 355.473 463.931 354.066 463.335 352.295C462.738 350.515 462.44 348.28 462.44 345.591C462.44 343.015 462.681 340.733 463.164 338.744C463.647 336.746 464.348 335.065 465.266 333.702C466.185 332.329 467.293 331.287 468.59 330.577C469.897 329.866 471.37 329.511 473.008 329.511C474.637 329.511 476.085 329.838 477.354 330.491C478.633 331.135 479.674 332.035 480.479 333.19C481.284 334.346 481.805 335.676 482.042 337.182H478.576C478.254 335.875 477.629 334.791 476.701 333.929C475.773 333.067 474.542 332.636 473.008 332.636C470.754 332.636 468.978 333.616 467.681 335.577C466.393 337.537 465.745 340.288 465.735 343.83H465.962C466.493 343.025 467.122 342.338 467.852 341.77C468.59 341.192 469.405 340.747 470.295 340.435C471.185 340.122 472.127 339.966 473.121 339.966C474.788 339.966 476.313 340.383 477.695 341.216C479.078 342.04 480.186 343.181 481.019 344.639C481.853 346.088 482.269 347.75 482.269 349.625C482.269 351.424 481.867 353.072 481.062 354.568C480.257 356.055 479.125 357.239 477.667 358.119C476.218 358.991 474.513 359.417 472.553 359.398ZM472.553 356.273C473.746 356.273 474.817 355.974 475.763 355.378C476.72 354.781 477.473 353.981 478.022 352.977C478.581 351.973 478.86 350.856 478.86 349.625C478.86 348.422 478.59 347.329 478.05 346.344C477.52 345.349 476.786 344.559 475.849 343.972C474.921 343.384 473.86 343.091 472.667 343.091C471.767 343.091 470.929 343.271 470.153 343.631C469.376 343.981 468.694 344.464 468.107 345.08C467.53 345.695 467.075 346.401 466.744 347.196C466.412 347.982 466.246 348.811 466.246 349.682C466.246 350.837 466.516 351.917 467.056 352.92C467.605 353.924 468.353 354.734 469.3 355.349C470.257 355.965 471.341 356.273 472.553 356.273ZM501.085 353.545V352.011C501.085 350.951 501.302 349.98 501.738 349.099C502.183 348.209 502.827 347.499 503.67 346.969C504.522 346.429 505.554 346.159 506.766 346.159C507.998 346.159 509.03 346.429 509.863 346.969C510.696 347.499 511.326 348.209 511.752 349.099C512.178 349.98 512.391 350.951 512.391 352.011V353.545C512.391 354.606 512.174 355.581 511.738 356.472C511.312 357.352 510.677 358.062 509.835 358.602C509.001 359.133 507.979 359.398 506.766 359.398C505.535 359.398 504.498 359.133 503.656 358.602C502.813 358.062 502.174 357.352 501.738 356.472C501.302 355.581 501.085 354.606 501.085 353.545ZM503.982 352.011V353.545C503.982 354.426 504.191 355.217 504.607 355.918C505.024 356.609 505.744 356.955 506.766 356.955C507.761 356.955 508.462 356.609 508.869 355.918C509.285 355.217 509.494 354.426 509.494 353.545V352.011C509.494 351.131 509.295 350.345 508.897 349.653C508.499 348.953 507.789 348.602 506.766 348.602C505.772 348.602 505.057 348.953 504.622 349.653C504.195 350.345 503.982 351.131 503.982 352.011ZM486.596 336.898V335.364C486.596 334.303 486.814 333.332 487.249 332.452C487.695 331.562 488.338 330.851 489.181 330.321C490.034 329.781 491.066 329.511 492.278 329.511C493.509 329.511 494.541 329.781 495.374 330.321C496.208 330.851 496.837 331.562 497.264 332.452C497.69 333.332 497.903 334.303 497.903 335.364V336.898C497.903 337.958 497.685 338.934 497.249 339.824C496.823 340.705 496.189 341.415 495.346 341.955C494.513 342.485 493.49 342.75 492.278 342.75C491.047 342.75 490.01 342.485 489.167 341.955C488.324 341.415 487.685 340.705 487.249 339.824C486.814 338.934 486.596 337.958 486.596 336.898ZM489.494 335.364V336.898C489.494 337.778 489.702 338.569 490.119 339.27C490.535 339.961 491.255 340.307 492.278 340.307C493.272 340.307 493.973 339.961 494.38 339.27C494.797 338.569 495.005 337.778 495.005 336.898V335.364C495.005 334.483 494.806 333.697 494.409 333.006C494.011 332.305 493.301 331.955 492.278 331.955C491.284 331.955 490.569 332.305 490.133 333.006C489.707 333.697 489.494 334.483 489.494 335.364ZM487.676 359L507.676 329.909H510.914L490.914 359H487.676Z" fill="#130E30"/>
<path d="M478 285C490.776 285 503.208 289.147 513.425 296.819C523.642 304.49 531.093 315.27 534.657 327.54C538.222 339.809 537.707 352.903 533.191 364.855C528.675 376.807 520.401 386.969 509.614 393.815C498.826 400.661 486.108 403.821 473.371 402.818C460.634 401.816 448.566 396.706 438.983 388.257C429.399 379.807 422.817 368.475 420.226 355.964C417.635 343.453 419.175 330.439 424.615 318.879" stroke="#59E25D" stroke-width="12"/>
<path d="M424.615 318.879C429.382 308.749 436.933 300.184 446.386 294.185C455.839 288.186 466.804 285 478 285" stroke="#3A93FF" stroke-width="12"/>
</g>
<defs>
<filter id="filter0_d_15493_14955" x="147" y="243" width="434" height="206" filterUnits="userSpaceOnUse" color-interpolation-filters="sRGB">
<feFlood flood-opacity="0" result="BackgroundImageFix"/>
<feColorMatrix in="SourceAlpha" type="matrix" values="0 0 0 0 0 0 0 0 0 0 0 0 0 0 0 0 0 0 127 0" result="hardAlpha"/>
<feOffset dy="2"/>
<feGaussianBlur stdDeviation="3"/>
<feComposite in2="hardAlpha" operator="out"/>
<feColorMatrix type="matrix" values="0 0 0 0 0.105882 0 0 0 0 0.141176 0 0 0 0 0.172549 0 0 0 0.1 0"/>
<feBlend mode="normal" in2="BackgroundImageFix" result="effect1_dropShadow_15493_14955"/>
<feBlend mode="normal" in="SourceGraphic" in2="effect1_dropShadow_15493_14955" result="shape"/>
</filter>
</defs>
</svg>
