<svg width="800" height="600" viewBox="0 0 800 600" fill="none" xmlns="http://www.w3.org/2000/svg">
<rect width="800" height="600" fill="#EFF2E5"/>
<g style="mix-blend-mode:multiply">
<path d="M0 116.166C0 69.1302 38.1302 31 85.1661 31H533.834C580.87 31 619 69.1302 619 116.166V342.834C619 389.87 580.87 428 533.834 428H85.1661C38.1301 428 0 389.87 0 342.834V116.166Z" fill="#FFE228"/>
</g>
<g style="mix-blend-mode:multiply">
<path d="M212 174.166C212 127.13 250.13 89 297.166 89H714.834C761.87 89 800 127.13 800 174.166V477.834C800 524.87 761.87 563 714.834 563H297.166C250.13 563 212 524.87 212 477.834V174.166Z" fill="#E261E5"/>
</g>
<g filter="url(#filter0_d_15492_14565)">
<rect x="153" y="255" width="422" height="178" rx="12" fill="white" shape-rendering="crispEdges"/>
<path d="M187.29 312V293.091H198.702V295.122H189.58V301.511H198.111V303.543H189.58V309.969H198.849V312H187.29ZM212.65 297.818C212.539 296.883 212.09 296.156 211.302 295.639C210.514 295.122 209.547 294.864 208.403 294.864C207.565 294.864 206.833 294.999 206.205 295.27C205.583 295.541 205.097 295.913 204.746 296.387C204.402 296.861 204.229 297.4 204.229 298.003C204.229 298.508 204.349 298.942 204.589 299.305C204.836 299.662 205.15 299.96 205.531 300.2C205.913 300.434 206.313 300.628 206.731 300.782C207.15 300.93 207.535 301.05 207.886 301.142L209.806 301.659C210.298 301.788 210.846 301.967 211.449 302.195C212.059 302.422 212.641 302.733 213.194 303.127C213.755 303.515 214.216 304.013 214.579 304.623C214.943 305.232 215.124 305.98 215.124 306.866C215.124 307.888 214.856 308.812 214.321 309.636C213.792 310.461 213.016 311.117 211.994 311.603C210.979 312.089 209.744 312.332 208.292 312.332C206.938 312.332 205.765 312.114 204.774 311.677C203.789 311.24 203.014 310.63 202.447 309.849C201.887 309.067 201.57 308.159 201.496 307.125H203.86C203.922 307.839 204.162 308.43 204.58 308.898C205.005 309.359 205.54 309.704 206.187 309.932C206.839 310.153 207.541 310.264 208.292 310.264C209.166 310.264 209.951 310.123 210.646 309.839C211.342 309.55 211.893 309.15 212.299 308.639C212.705 308.122 212.908 307.519 212.908 306.83C212.908 306.202 212.733 305.691 212.382 305.297C212.031 304.903 211.569 304.583 210.997 304.337C210.425 304.09 209.806 303.875 209.141 303.69L206.815 303.026C205.337 302.601 204.168 301.995 203.306 301.207C202.444 300.419 202.013 299.388 202.013 298.114C202.013 297.055 202.3 296.132 202.872 295.344C203.451 294.55 204.226 293.934 205.199 293.497C206.177 293.054 207.27 292.832 208.476 292.832C209.695 292.832 210.779 293.051 211.726 293.488C212.674 293.919 213.425 294.51 213.979 295.261C214.539 296.012 214.835 296.864 214.866 297.818H212.65ZM218.369 312V293.091H224.758C226.235 293.091 227.448 293.343 228.396 293.848C229.344 294.347 230.046 295.033 230.501 295.907C230.957 296.781 231.184 297.775 231.184 298.889C231.184 300.003 230.957 300.991 230.501 301.853C230.046 302.715 229.347 303.392 228.405 303.884C227.463 304.371 226.26 304.614 224.795 304.614H219.625V302.545H224.721C225.731 302.545 226.543 302.398 227.159 302.102C227.78 301.807 228.23 301.388 228.507 300.847C228.79 300.299 228.931 299.646 228.931 298.889C228.931 298.132 228.79 297.47 228.507 296.904C228.224 296.338 227.771 295.901 227.149 295.593C226.528 295.279 225.706 295.122 224.684 295.122H220.659V312H218.369ZM227.269 303.506L231.923 312H229.264L224.684 303.506H227.269ZM244.821 297.818C244.71 296.883 244.261 296.156 243.473 295.639C242.685 295.122 241.718 294.864 240.574 294.864C239.736 294.864 239.004 294.999 238.376 295.27C237.754 295.541 237.268 295.913 236.917 296.387C236.573 296.861 236.4 297.4 236.4 298.003C236.4 298.508 236.52 298.942 236.76 299.305C237.007 299.662 237.32 299.96 237.702 300.2C238.084 300.434 238.484 300.628 238.902 300.782C239.321 300.93 239.706 301.05 240.056 301.142L241.977 301.659C242.469 301.788 243.017 301.967 243.62 302.195C244.23 302.422 244.811 302.733 245.365 303.127C245.926 303.515 246.387 304.013 246.75 304.623C247.114 305.232 247.295 305.98 247.295 306.866C247.295 307.888 247.027 308.812 246.492 309.636C245.962 310.461 245.187 311.117 244.165 311.603C243.15 312.089 241.915 312.332 240.463 312.332C239.109 312.332 237.936 312.114 236.945 311.677C235.96 311.24 235.185 310.63 234.618 309.849C234.058 309.067 233.741 308.159 233.667 307.125H236.031C236.092 307.839 236.333 308.43 236.751 308.898C237.176 309.359 237.711 309.704 238.358 309.932C239.01 310.153 239.712 310.264 240.463 310.264C241.337 310.264 242.122 310.123 242.817 309.839C243.513 309.55 244.064 309.15 244.47 308.639C244.876 308.122 245.079 307.519 245.079 306.83C245.079 306.202 244.904 305.691 244.553 305.297C244.202 304.903 243.74 304.583 243.168 304.337C242.596 304.09 241.977 303.875 241.312 303.69L238.985 303.026C237.508 302.601 236.339 301.995 235.477 301.207C234.615 300.419 234.184 299.388 234.184 298.114C234.184 297.055 234.471 296.132 235.043 295.344C235.622 294.55 236.397 293.934 237.37 293.497C238.348 293.054 239.441 292.832 240.647 292.832C241.866 292.832 242.949 293.051 243.897 293.488C244.845 293.919 245.596 294.51 246.15 295.261C246.71 296.012 247.006 296.864 247.037 297.818H244.821ZM257.037 312V297.818H259.142V299.96H259.29C259.548 299.259 260.016 298.689 260.693 298.252C261.37 297.815 262.133 297.597 262.983 297.597C263.143 297.597 263.343 297.6 263.583 297.606C263.823 297.612 264.005 297.621 264.128 297.634V299.849C264.054 299.831 263.885 299.803 263.62 299.766C263.361 299.723 263.088 299.702 262.798 299.702C262.109 299.702 261.493 299.846 260.952 300.136C260.416 300.419 259.991 300.813 259.678 301.317C259.37 301.816 259.216 302.385 259.216 303.026V312H257.037ZM271.705 312.295C270.339 312.295 269.16 311.994 268.169 311.391C267.184 310.781 266.424 309.932 265.888 308.842C265.359 307.747 265.094 306.473 265.094 305.02C265.094 303.567 265.359 302.287 265.888 301.179C266.424 300.065 267.169 299.197 268.123 298.575C269.083 297.947 270.203 297.634 271.484 297.634C272.222 297.634 272.952 297.757 273.672 298.003C274.392 298.249 275.047 298.649 275.638 299.203C276.229 299.751 276.7 300.477 277.051 301.382C277.402 302.287 277.577 303.401 277.577 304.724V305.648H266.645V303.764H275.361C275.361 302.964 275.201 302.25 274.881 301.622C274.567 300.994 274.118 300.499 273.533 300.136C272.955 299.772 272.271 299.591 271.484 299.591C270.616 299.591 269.865 299.806 269.231 300.237C268.603 300.662 268.12 301.216 267.781 301.899C267.443 302.582 267.273 303.315 267.273 304.097V305.352C267.273 306.423 267.458 307.331 267.827 308.076C268.203 308.815 268.723 309.378 269.388 309.766C270.052 310.147 270.825 310.338 271.705 310.338C272.278 310.338 272.795 310.258 273.256 310.098C273.724 309.932 274.127 309.686 274.466 309.359C274.804 309.027 275.066 308.615 275.251 308.122L277.356 308.713C277.134 309.427 276.762 310.055 276.238 310.597C275.715 311.132 275.069 311.551 274.3 311.852C273.53 312.148 272.665 312.295 271.705 312.295ZM291.537 297.818L286.293 312H284.077L278.832 297.818H281.196L285.111 309.119H285.258L289.173 297.818H291.537ZM293.893 312V297.818H296.072V312H293.893ZM295.001 295.455C294.576 295.455 294.21 295.31 293.902 295.021C293.601 294.731 293.45 294.384 293.45 293.977C293.45 293.571 293.601 293.223 293.902 292.934C294.21 292.645 294.576 292.5 295.001 292.5C295.426 292.5 295.789 292.645 296.09 292.934C296.398 293.223 296.552 293.571 296.552 293.977C296.552 294.384 296.398 294.731 296.09 295.021C295.789 295.31 295.426 295.455 295.001 295.455ZM305.489 312.295C304.122 312.295 302.944 311.994 301.953 311.391C300.968 310.781 300.208 309.932 299.672 308.842C299.143 307.747 298.878 306.473 298.878 305.02C298.878 303.567 299.143 302.287 299.672 301.179C300.208 300.065 300.952 299.197 301.906 298.575C302.867 297.947 303.987 297.634 305.267 297.634C306.006 297.634 306.735 297.757 307.455 298.003C308.176 298.249 308.831 298.649 309.422 299.203C310.013 299.751 310.484 300.477 310.835 301.382C311.186 302.287 311.361 303.401 311.361 304.724V305.648H300.429V303.764H309.145C309.145 302.964 308.985 302.25 308.665 301.622C308.351 300.994 307.902 300.499 307.317 300.136C306.738 299.772 306.055 299.591 305.267 299.591C304.399 299.591 303.648 299.806 303.014 300.237C302.387 300.662 301.903 301.216 301.565 301.899C301.226 302.582 301.057 303.315 301.057 304.097V305.352C301.057 306.423 301.242 307.331 301.611 308.076C301.986 308.815 302.507 309.378 303.171 309.766C303.836 310.147 304.609 310.338 305.489 310.338C306.061 310.338 306.578 310.258 307.04 310.098C307.508 309.932 307.911 309.686 308.25 309.359C308.588 309.027 308.85 308.615 309.034 308.122L311.139 308.713C310.918 309.427 310.545 310.055 310.022 310.597C309.499 311.132 308.853 311.551 308.083 311.852C307.314 312.148 306.449 312.295 305.489 312.295ZM317.369 312L313.048 297.818H315.337L318.403 308.676H318.551L321.579 297.818H323.906L326.897 308.639H327.045L330.11 297.818H332.4L328.079 312H325.937L322.835 301.105H322.613L319.511 312H317.369Z" fill="#130E30"/>
<path d="M185.616 338.141V336.818H193.496V338.141H190.32V347H188.788V338.141H185.616ZM196.948 347.154C196.232 347.154 195.607 346.99 195.073 346.662C194.54 346.334 194.125 345.875 193.83 345.285C193.535 344.695 193.388 344.005 193.388 343.217C193.388 342.424 193.535 341.732 193.83 341.138C194.125 340.545 194.54 340.085 195.073 339.756C195.607 339.428 196.232 339.264 196.948 339.264C197.664 339.264 198.288 339.428 198.822 339.756C199.356 340.085 199.77 340.545 200.065 341.138C200.36 341.732 200.507 342.424 200.507 343.217C200.507 344.005 200.36 344.695 200.065 345.285C199.77 345.875 199.356 346.334 198.822 346.662C198.288 346.99 197.664 347.154 196.948 347.154ZM196.953 345.906C197.417 345.906 197.801 345.784 198.106 345.538C198.411 345.293 198.636 344.967 198.782 344.559C198.931 344.151 199.006 343.702 199.006 343.212C199.006 342.724 198.931 342.277 198.782 341.869C198.636 341.458 198.411 341.129 198.106 340.88C197.801 340.631 197.417 340.507 196.953 340.507C196.485 340.507 196.097 340.631 195.789 340.88C195.484 341.129 195.257 341.458 195.108 341.869C194.962 342.277 194.889 342.724 194.889 343.212C194.889 343.702 194.962 344.151 195.108 344.559C195.257 344.967 195.484 345.293 195.789 345.538C196.097 345.784 196.485 345.906 196.953 345.906ZM205.451 339.364V340.557H201.28V339.364H205.451ZM202.399 337.534H203.885V344.758C203.885 345.046 203.928 345.263 204.014 345.409C204.101 345.552 204.212 345.649 204.347 345.702C204.487 345.752 204.638 345.777 204.8 345.777C204.919 345.777 205.024 345.769 205.113 345.752C205.203 345.736 205.272 345.722 205.322 345.712L205.59 346.94C205.504 346.973 205.382 347.007 205.222 347.04C205.063 347.076 204.865 347.096 204.626 347.099C204.235 347.106 203.87 347.036 203.532 346.891C203.194 346.745 202.921 346.519 202.712 346.214C202.503 345.91 202.399 345.527 202.399 345.066V337.534ZM209.038 347.169C208.554 347.169 208.116 347.08 207.725 346.901C207.334 346.718 207.024 346.455 206.796 346.11C206.57 345.765 206.458 345.343 206.458 344.842C206.458 344.411 206.54 344.057 206.706 343.778C206.872 343.5 207.096 343.28 207.377 343.117C207.659 342.955 207.974 342.832 208.322 342.749C208.67 342.666 209.025 342.603 209.386 342.56C209.843 342.507 210.214 342.464 210.499 342.431C210.785 342.395 210.992 342.337 211.121 342.257C211.25 342.178 211.315 342.048 211.315 341.869V341.835C211.315 341.4 211.192 341.064 210.947 340.825C210.705 340.587 210.344 340.467 209.863 340.467C209.363 340.467 208.968 340.578 208.68 340.8C208.395 341.019 208.198 341.263 208.088 341.531L206.691 341.213C206.857 340.749 207.099 340.375 207.417 340.089C207.739 339.801 208.108 339.592 208.526 339.463C208.943 339.33 209.383 339.264 209.843 339.264C210.148 339.264 210.471 339.301 210.813 339.374C211.157 339.443 211.479 339.572 211.777 339.761C212.079 339.95 212.326 340.22 212.518 340.572C212.71 340.92 212.806 341.372 212.806 341.929V347H211.355V345.956H211.295C211.199 346.148 211.055 346.337 210.862 346.523C210.67 346.708 210.423 346.862 210.122 346.985C209.82 347.108 209.459 347.169 209.038 347.169ZM209.361 345.976C209.772 345.976 210.123 345.895 210.415 345.732C210.71 345.57 210.934 345.358 211.086 345.096C211.242 344.831 211.32 344.547 211.32 344.246V343.261C211.267 343.314 211.164 343.364 211.012 343.411C210.862 343.454 210.692 343.492 210.499 343.525C210.307 343.555 210.12 343.583 209.938 343.609C209.755 343.633 209.603 343.652 209.48 343.669C209.192 343.705 208.928 343.767 208.69 343.853C208.455 343.939 208.266 344.063 208.123 344.226C207.984 344.385 207.914 344.597 207.914 344.862C207.914 345.23 208.05 345.509 208.322 345.697C208.594 345.883 208.94 345.976 209.361 345.976ZM215.993 336.818V347H214.506V336.818H215.993Z" fill="#130E30"/>
<path d="M354.919 336.818V347H353.378V338.359H353.318L350.882 339.95V338.479L353.423 336.818H354.919ZM357.393 347V345.886L360.839 342.317C361.207 341.929 361.51 341.589 361.749 341.298C361.991 341.003 362.171 340.723 362.29 340.457C362.41 340.192 362.469 339.911 362.469 339.612C362.469 339.274 362.39 338.982 362.231 338.737C362.072 338.489 361.855 338.298 361.58 338.165C361.304 338.03 360.995 337.962 360.65 337.962C360.285 337.962 359.967 338.036 359.695 338.185C359.424 338.335 359.215 338.545 359.069 338.817C358.923 339.089 358.85 339.407 358.85 339.771H357.384C357.384 339.152 357.526 338.61 357.811 338.146C358.096 337.682 358.487 337.322 358.984 337.067C359.482 336.808 360.047 336.679 360.68 336.679C361.319 336.679 361.883 336.807 362.37 337.062C362.861 337.314 363.243 337.658 363.518 338.096C363.794 338.53 363.931 339.021 363.931 339.567C363.931 339.945 363.86 340.315 363.717 340.676C363.578 341.037 363.335 341.44 362.987 341.884C362.638 342.325 362.155 342.86 361.535 343.49L359.511 345.608V345.683H364.095V347H357.393Z" fill="#130E30"/>
<circle cx="191" cy="369" r="6" fill="#3A93FF"/>
<path d="M214.307 362.818V373H213.114L207.565 365.006H207.466V373H206.233V362.818H207.426L212.994 370.832H213.094V362.818H214.307ZM219.537 373.159C218.801 373.159 218.166 372.997 217.632 372.672C217.102 372.344 216.693 371.886 216.404 371.3C216.119 370.71 215.977 370.024 215.977 369.241C215.977 368.459 216.119 367.77 216.404 367.173C216.693 366.573 217.094 366.106 217.608 365.771C218.125 365.433 218.728 365.264 219.417 365.264C219.815 365.264 220.208 365.33 220.596 365.463C220.983 365.596 221.336 365.811 221.654 366.109C221.973 366.404 222.226 366.795 222.415 367.283C222.604 367.77 222.699 368.37 222.699 369.082V369.58H216.812V368.565H221.505C221.505 368.134 221.419 367.75 221.247 367.412C221.078 367.074 220.836 366.807 220.521 366.612C220.209 366.416 219.842 366.318 219.417 366.318C218.95 366.318 218.546 366.434 218.204 366.666C217.866 366.895 217.606 367.193 217.424 367.561C217.241 367.929 217.15 368.323 217.15 368.744V369.42C217.15 369.997 217.25 370.486 217.449 370.887C217.651 371.285 217.931 371.588 218.289 371.797C218.647 372.002 219.063 372.105 219.537 372.105C219.845 372.105 220.123 372.062 220.372 371.976C220.624 371.886 220.841 371.754 221.023 371.578C221.205 371.399 221.346 371.177 221.446 370.912L222.579 371.23C222.46 371.615 222.259 371.953 221.978 372.244C221.696 372.533 221.348 372.758 220.934 372.92C220.519 373.08 220.054 373.159 219.537 373.159ZM227.405 373.159C226.669 373.159 226.035 372.997 225.501 372.672C224.971 372.344 224.561 371.886 224.273 371.3C223.988 370.71 223.845 370.024 223.845 369.241C223.845 368.459 223.988 367.77 224.273 367.173C224.561 366.573 224.962 366.106 225.476 365.771C225.993 365.433 226.596 365.264 227.286 365.264C227.683 365.264 228.076 365.33 228.464 365.463C228.852 365.596 229.205 365.811 229.523 366.109C229.841 366.404 230.095 366.795 230.284 367.283C230.472 367.77 230.567 368.37 230.567 369.082V369.58H224.681V368.565H229.374C229.374 368.134 229.288 367.75 229.115 367.412C228.946 367.074 228.704 366.807 228.389 366.612C228.078 366.416 227.71 366.318 227.286 366.318C226.818 366.318 226.414 366.434 226.073 366.666C225.735 366.895 225.474 367.193 225.292 367.561C225.11 367.929 225.019 368.323 225.019 368.744V369.42C225.019 369.997 225.118 370.486 225.317 370.887C225.519 371.285 225.799 371.588 226.157 371.797C226.515 372.002 226.931 372.105 227.405 372.105C227.713 372.105 227.992 372.062 228.24 371.976C228.492 371.886 228.709 371.754 228.892 371.578C229.074 371.399 229.215 371.177 229.314 370.912L230.448 371.23C230.328 371.615 230.128 371.953 229.846 372.244C229.564 372.533 229.216 372.758 228.802 372.92C228.388 373.08 227.922 373.159 227.405 373.159ZM234.955 373.159C234.319 373.159 233.757 372.998 233.27 372.677C232.783 372.352 232.402 371.895 232.126 371.305C231.851 370.711 231.714 370.01 231.714 369.202C231.714 368.4 231.851 367.704 232.126 367.114C232.402 366.524 232.784 366.068 233.275 365.746C233.765 365.425 234.332 365.264 234.975 365.264C235.472 365.264 235.865 365.347 236.153 365.513C236.445 365.675 236.667 365.861 236.82 366.07C236.975 366.275 237.096 366.444 237.183 366.577H237.282V362.818H238.455V373H237.322V371.827H237.183C237.096 371.966 236.974 372.142 236.815 372.354C236.656 372.562 236.429 372.75 236.134 372.915C235.839 373.078 235.446 373.159 234.955 373.159ZM235.114 372.105C235.585 372.105 235.983 371.982 236.308 371.737C236.632 371.489 236.879 371.146 237.048 370.708C237.217 370.267 237.302 369.759 237.302 369.182C237.302 368.612 237.219 368.113 237.053 367.685C236.888 367.254 236.642 366.92 236.317 366.681C235.993 366.439 235.592 366.318 235.114 366.318C234.617 366.318 234.203 366.446 233.871 366.701C233.543 366.953 233.296 367.296 233.131 367.73C232.968 368.161 232.887 368.645 232.887 369.182C232.887 369.725 232.97 370.219 233.136 370.663C233.305 371.104 233.553 371.455 233.881 371.717C234.213 371.976 234.624 372.105 235.114 372.105ZM245.896 367.074L244.842 367.372C244.776 367.196 244.678 367.026 244.549 366.86C244.423 366.691 244.251 366.552 244.032 366.442C243.813 366.333 243.533 366.278 243.192 366.278C242.724 366.278 242.335 366.386 242.023 366.602C241.715 366.814 241.561 367.084 241.561 367.412C241.561 367.704 241.667 367.934 241.879 368.103C242.091 368.272 242.423 368.413 242.873 368.526L244.007 368.804C244.69 368.97 245.198 369.223 245.533 369.565C245.868 369.903 246.035 370.339 246.035 370.872C246.035 371.31 245.909 371.701 245.658 372.045C245.409 372.39 245.061 372.662 244.613 372.861C244.166 373.06 243.646 373.159 243.052 373.159C242.274 373.159 241.629 372.99 241.118 372.652C240.608 372.314 240.285 371.82 240.149 371.17L241.263 370.892C241.369 371.303 241.569 371.611 241.864 371.817C242.162 372.022 242.552 372.125 243.033 372.125C243.579 372.125 244.014 372.009 244.335 371.777C244.66 371.542 244.822 371.26 244.822 370.932C244.822 370.667 244.729 370.445 244.544 370.266C244.358 370.083 244.073 369.947 243.689 369.858L242.416 369.56C241.717 369.394 241.203 369.137 240.875 368.789C240.55 368.438 240.388 367.999 240.388 367.472C240.388 367.041 240.509 366.66 240.751 366.328C240.996 365.997 241.329 365.737 241.75 365.548C242.174 365.359 242.655 365.264 243.192 365.264C243.947 365.264 244.541 365.43 244.971 365.761C245.406 366.093 245.714 366.53 245.896 367.074ZM253.426 373.179C252.942 373.179 252.503 373.088 252.109 372.906C251.714 372.72 251.401 372.453 251.169 372.105C250.937 371.754 250.821 371.33 250.821 370.832C250.821 370.395 250.907 370.04 251.08 369.768C251.252 369.493 251.482 369.278 251.771 369.122C252.059 368.966 252.377 368.85 252.725 368.774C253.077 368.695 253.429 368.632 253.784 368.585C254.248 368.526 254.624 368.481 254.913 368.451C255.204 368.418 255.416 368.363 255.549 368.287C255.685 368.211 255.753 368.078 255.753 367.889V367.849C255.753 367.359 255.619 366.978 255.35 366.706C255.085 366.434 254.682 366.298 254.142 366.298C253.582 366.298 253.143 366.421 252.825 366.666C252.506 366.911 252.283 367.173 252.153 367.452L251.04 367.054C251.239 366.59 251.504 366.229 251.835 365.97C252.17 365.708 252.535 365.526 252.929 365.423C253.327 365.317 253.718 365.264 254.102 365.264C254.348 365.264 254.629 365.294 254.947 365.354C255.269 365.41 255.579 365.528 255.877 365.707C256.179 365.886 256.429 366.156 256.628 366.517C256.827 366.878 256.926 367.362 256.926 367.969V373H255.753V371.966H255.693C255.614 372.132 255.481 372.309 255.295 372.498C255.11 372.687 254.863 372.848 254.555 372.98C254.246 373.113 253.87 373.179 253.426 373.179ZM253.605 372.125C254.069 372.125 254.46 372.034 254.778 371.852C255.1 371.669 255.342 371.434 255.504 371.146C255.67 370.857 255.753 370.554 255.753 370.236V369.162C255.703 369.222 255.594 369.276 255.425 369.326C255.259 369.372 255.067 369.414 254.848 369.45C254.633 369.483 254.422 369.513 254.217 369.54C254.014 369.563 253.85 369.583 253.724 369.599C253.42 369.639 253.135 369.704 252.869 369.793C252.608 369.879 252.395 370.01 252.233 370.186C252.074 370.358 251.994 370.594 251.994 370.892C251.994 371.3 252.145 371.608 252.447 371.817C252.752 372.022 253.138 372.125 253.605 372.125ZM262.109 365.364V366.358H258.151V365.364H262.109ZM259.305 363.534H260.478V370.812C260.478 371.144 260.526 371.393 260.622 371.558C260.722 371.721 260.848 371.83 261 371.886C261.156 371.939 261.32 371.966 261.492 371.966C261.621 371.966 261.728 371.959 261.81 371.946C261.893 371.929 261.96 371.916 262.009 371.906L262.248 372.96C262.168 372.99 262.057 373.02 261.915 373.05C261.772 373.083 261.592 373.099 261.373 373.099C261.041 373.099 260.717 373.028 260.398 372.886C260.084 372.743 259.822 372.526 259.613 372.234C259.407 371.943 259.305 371.575 259.305 371.131V363.534ZM266.915 365.364V366.358H262.957V365.364H266.915ZM264.111 363.534H265.284V370.812C265.284 371.144 265.332 371.393 265.428 371.558C265.528 371.721 265.654 371.83 265.806 371.886C265.962 371.939 266.126 371.966 266.298 371.966C266.427 371.966 266.533 371.959 266.616 371.946C266.699 371.929 266.766 371.916 266.815 371.906L267.054 372.96C266.974 372.99 266.863 373.02 266.721 373.05C266.578 373.083 266.398 373.099 266.179 373.099C265.847 373.099 265.523 373.028 265.204 372.886C264.89 372.743 264.628 372.526 264.419 372.234C264.213 371.943 264.111 371.575 264.111 371.131V363.534ZM271.519 373.159C270.783 373.159 270.149 372.997 269.615 372.672C269.085 372.344 268.675 371.886 268.387 371.3C268.102 370.71 267.96 370.024 267.96 369.241C267.96 368.459 268.102 367.77 268.387 367.173C268.675 366.573 269.077 366.106 269.59 365.771C270.107 365.433 270.711 365.264 271.4 365.264C271.798 365.264 272.19 365.33 272.578 365.463C272.966 365.596 273.319 365.811 273.637 366.109C273.955 366.404 274.209 366.795 274.398 367.283C274.587 367.77 274.681 368.37 274.681 369.082V369.58H268.795V368.565H273.488C273.488 368.134 273.402 367.75 273.229 367.412C273.06 367.074 272.818 366.807 272.504 366.612C272.192 366.416 271.824 366.318 271.4 366.318C270.933 366.318 270.528 366.434 270.187 366.666C269.849 366.895 269.589 367.193 269.406 367.561C269.224 367.929 269.133 368.323 269.133 368.744V369.42C269.133 369.997 269.232 370.486 269.431 370.887C269.633 371.285 269.913 371.588 270.271 371.797C270.629 372.002 271.045 372.105 271.519 372.105C271.827 372.105 272.106 372.062 272.354 371.976C272.606 371.886 272.823 371.754 273.006 371.578C273.188 371.399 273.329 371.177 273.428 370.912L274.562 371.23C274.443 371.615 274.242 371.953 273.96 372.244C273.679 372.533 273.331 372.758 272.916 372.92C272.502 373.08 272.036 373.159 271.519 373.159ZM277.359 368.406V373H276.186V365.364H277.319V366.557H277.419C277.598 366.169 277.87 365.857 278.234 365.622C278.599 365.384 279.069 365.264 279.646 365.264C280.163 365.264 280.616 365.37 281.003 365.582C281.391 365.791 281.693 366.109 281.908 366.537C282.124 366.961 282.231 367.498 282.231 368.148V373H281.058V368.227C281.058 367.627 280.902 367.16 280.591 366.825C280.279 366.487 279.852 366.318 279.308 366.318C278.934 366.318 278.599 366.399 278.304 366.562C278.012 366.724 277.782 366.961 277.613 367.273C277.444 367.584 277.359 367.962 277.359 368.406ZM287.416 365.364V366.358H283.459V365.364H287.416ZM284.612 363.534H285.786V370.812C285.786 371.144 285.834 371.393 285.93 371.558C286.029 371.721 286.155 371.83 286.308 371.886C286.464 371.939 286.628 371.966 286.8 371.966C286.929 371.966 287.035 371.959 287.118 371.946C287.201 371.929 287.267 371.916 287.317 371.906L287.556 372.96C287.476 372.99 287.365 373.02 287.223 373.05C287.08 373.083 286.899 373.099 286.681 373.099C286.349 373.099 286.024 373.028 285.706 372.886C285.391 372.743 285.13 372.526 284.921 372.234C284.715 371.943 284.612 371.575 284.612 371.131V363.534ZM288.901 373V365.364H290.075V373H288.901ZM289.498 364.091C289.269 364.091 289.072 364.013 288.906 363.857C288.744 363.701 288.663 363.514 288.663 363.295C288.663 363.077 288.744 362.889 288.906 362.734C289.072 362.578 289.269 362.5 289.498 362.5C289.727 362.5 289.922 362.578 290.085 362.734C290.25 362.889 290.333 363.077 290.333 363.295C290.333 363.514 290.25 363.701 290.085 363.857C289.922 364.013 289.727 364.091 289.498 364.091ZM295.046 373.159C294.357 373.159 293.752 372.995 293.231 372.667C292.714 372.339 292.31 371.88 292.018 371.29C291.73 370.7 291.586 370.01 291.586 369.222C291.586 368.426 291.73 367.732 292.018 367.138C292.31 366.545 292.714 366.085 293.231 365.756C293.752 365.428 294.357 365.264 295.046 365.264C295.735 365.264 296.339 365.428 296.856 365.756C297.376 366.085 297.78 366.545 298.069 367.138C298.36 367.732 298.506 368.426 298.506 369.222C298.506 370.01 298.36 370.7 298.069 371.29C297.78 371.88 297.376 372.339 296.856 372.667C296.339 372.995 295.735 373.159 295.046 373.159ZM295.046 372.105C295.57 372.105 296 371.971 296.339 371.702C296.677 371.434 296.927 371.081 297.089 370.643C297.252 370.206 297.333 369.732 297.333 369.222C297.333 368.711 297.252 368.236 297.089 367.795C296.927 367.354 296.677 366.998 296.339 366.726C296 366.454 295.57 366.318 295.046 366.318C294.522 366.318 294.091 366.454 293.753 366.726C293.415 366.998 293.165 367.354 293.003 367.795C292.84 368.236 292.759 368.711 292.759 369.222C292.759 369.732 292.84 370.206 293.003 370.643C293.165 371.081 293.415 371.434 293.753 371.702C294.091 371.971 294.522 372.105 295.046 372.105ZM301.19 368.406V373H300.017V365.364H301.151V366.557H301.25C301.429 366.169 301.701 365.857 302.065 365.622C302.43 365.384 302.901 365.264 303.477 365.264C303.994 365.264 304.447 365.37 304.835 365.582C305.222 365.791 305.524 366.109 305.739 366.537C305.955 366.961 306.063 367.498 306.063 368.148V373H304.889V368.227C304.889 367.627 304.734 367.16 304.422 366.825C304.11 366.487 303.683 366.318 303.139 366.318C302.765 366.318 302.43 366.399 302.135 366.562C301.843 366.724 301.613 366.961 301.444 367.273C301.275 367.584 301.19 367.962 301.19 368.406Z" fill="#130E30"/>
<path d="M360.58 373.139C359.924 373.139 359.339 373.027 358.825 372.801C358.315 372.576 357.909 372.263 357.607 371.862C357.309 371.457 357.147 370.988 357.12 370.455H358.373C358.399 370.783 358.512 371.066 358.711 371.305C358.91 371.54 359.17 371.722 359.491 371.852C359.813 371.981 360.169 372.045 360.56 372.045C360.998 372.045 361.386 371.969 361.724 371.817C362.062 371.664 362.327 371.452 362.519 371.18C362.711 370.909 362.808 370.594 362.808 370.236C362.808 369.861 362.715 369.531 362.529 369.246C362.344 368.958 362.072 368.733 361.714 368.57C361.356 368.408 360.918 368.327 360.401 368.327H359.586V367.233H360.401C360.806 367.233 361.16 367.16 361.465 367.014C361.773 366.868 362.014 366.663 362.186 366.398C362.362 366.133 362.45 365.821 362.45 365.463C362.45 365.118 362.373 364.818 362.221 364.563C362.068 364.308 361.853 364.109 361.575 363.967C361.299 363.824 360.975 363.753 360.6 363.753C360.249 363.753 359.917 363.817 359.606 363.947C359.298 364.073 359.046 364.257 358.85 364.499C358.655 364.737 358.549 365.026 358.532 365.364H357.339C357.359 364.83 357.519 364.363 357.821 363.962C358.123 363.557 358.517 363.242 359.004 363.017C359.495 362.792 360.033 362.679 360.62 362.679C361.25 362.679 361.79 362.807 362.241 363.062C362.692 363.314 363.038 363.647 363.28 364.061C363.522 364.475 363.643 364.923 363.643 365.403C363.643 365.977 363.492 366.466 363.19 366.87C362.892 367.274 362.486 367.554 361.972 367.71V367.79C362.615 367.896 363.117 368.169 363.479 368.61C363.84 369.048 364.021 369.589 364.021 370.236C364.021 370.789 363.87 371.286 363.568 371.727C363.27 372.165 362.862 372.509 362.345 372.761C361.828 373.013 361.24 373.139 360.58 373.139Z" fill="#130E30"/>
<circle cx="191" cy="395" r="6" fill="#59E25D"/>
<path d="M214.824 393.909C214.824 394.983 214.63 395.911 214.242 396.693C213.854 397.475 213.322 398.079 212.646 398.503C211.97 398.927 211.198 399.139 210.33 399.139C209.461 399.139 208.689 398.927 208.013 398.503C207.337 398.079 206.805 397.475 206.417 396.693C206.029 395.911 205.835 394.983 205.835 393.909C205.835 392.835 206.029 391.907 206.417 391.125C206.805 390.343 207.337 389.74 208.013 389.315C208.689 388.891 209.461 388.679 210.33 388.679C211.198 388.679 211.97 388.891 212.646 389.315C213.322 389.74 213.854 390.343 214.242 391.125C214.63 391.907 214.824 392.835 214.824 393.909ZM213.631 393.909C213.631 393.027 213.483 392.283 213.188 391.677C212.897 391.07 212.5 390.611 212 390.3C211.503 389.988 210.946 389.832 210.33 389.832C209.713 389.832 209.155 389.988 208.654 390.3C208.157 390.611 207.761 391.07 207.466 391.677C207.174 392.283 207.028 393.027 207.028 393.909C207.028 394.791 207.174 395.535 207.466 396.141C207.761 396.748 208.157 397.207 208.654 397.518C209.155 397.83 209.713 397.986 210.33 397.986C210.946 397.986 211.503 397.83 212 397.518C212.5 397.207 212.897 396.748 213.188 396.141C213.483 395.535 213.631 394.791 213.631 393.909ZM216.617 399V388.818H217.85V393.869H217.969L222.543 388.818H224.154L219.878 393.412L224.154 399H222.662L219.123 394.267L217.85 395.699V399H216.617Z" fill="#130E30"/>
<path d="M360.559 388.679C360.977 388.682 361.394 388.762 361.812 388.918C362.23 389.073 362.611 389.332 362.955 389.693C363.3 390.051 363.577 390.54 363.786 391.16C363.994 391.78 364.099 392.557 364.099 393.491C364.099 394.396 364.013 395.2 363.84 395.903C363.671 396.602 363.426 397.192 363.105 397.673C362.786 398.153 362.399 398.518 361.941 398.766C361.487 399.015 360.973 399.139 360.4 399.139C359.83 399.139 359.321 399.027 358.874 398.801C358.43 398.572 358.065 398.256 357.78 397.852C357.498 397.444 357.318 396.972 357.238 396.435H358.451C358.561 396.902 358.778 397.288 359.102 397.593C359.431 397.895 359.863 398.045 360.4 398.045C361.186 398.045 361.805 397.702 362.259 397.016C362.717 396.33 362.945 395.361 362.945 394.108H362.866C362.68 394.386 362.46 394.627 362.205 394.829C361.95 395.031 361.666 395.187 361.355 395.296C361.043 395.406 360.712 395.46 360.36 395.46C359.777 395.46 359.242 395.316 358.754 395.028C358.271 394.736 357.883 394.337 357.591 393.83C357.303 393.319 357.159 392.736 357.159 392.08C357.159 391.456 357.298 390.886 357.576 390.369C357.858 389.849 358.252 389.435 358.759 389.126C359.27 388.818 359.87 388.669 360.559 388.679ZM360.559 389.773C360.142 389.773 359.765 389.877 359.431 390.086C359.099 390.291 358.836 390.57 358.64 390.921C358.448 391.269 358.352 391.655 358.352 392.08C358.352 392.504 358.445 392.89 358.63 393.238C358.819 393.583 359.076 393.858 359.401 394.063C359.729 394.265 360.102 394.366 360.519 394.366C360.834 394.366 361.128 394.305 361.399 394.183C361.671 394.057 361.908 393.886 362.11 393.67C362.316 393.452 362.477 393.205 362.593 392.93C362.709 392.651 362.767 392.361 362.767 392.06C362.767 391.662 362.67 391.289 362.478 390.941C362.289 390.593 362.027 390.311 361.693 390.096C361.361 389.88 360.983 389.773 360.559 389.773Z" fill="#130E30"/>
<path d="M443.177 359L456.188 333.261V333.034H441.188V329.909H459.824V333.205L446.87 359H443.177ZM472.553 359.398C471.36 359.379 470.167 359.152 468.974 358.716C467.781 358.28 466.692 357.546 465.707 356.514C464.722 355.473 463.931 354.066 463.335 352.295C462.738 350.515 462.44 348.28 462.44 345.591C462.44 343.015 462.681 340.733 463.164 338.744C463.647 336.746 464.348 335.065 465.266 333.702C466.185 332.329 467.293 331.287 468.59 330.577C469.897 329.866 471.37 329.511 473.008 329.511C474.637 329.511 476.085 329.838 477.354 330.491C478.633 331.135 479.674 332.035 480.479 333.19C481.284 334.346 481.805 335.676 482.042 337.182H478.576C478.254 335.875 477.629 334.791 476.701 333.929C475.773 333.067 474.542 332.636 473.008 332.636C470.754 332.636 468.978 333.616 467.681 335.577C466.393 337.537 465.745 340.288 465.735 343.83H465.962C466.493 343.025 467.122 342.338 467.852 341.77C468.59 341.192 469.405 340.747 470.295 340.435C471.185 340.122 472.127 339.966 473.121 339.966C474.788 339.966 476.313 340.383 477.695 341.216C479.078 342.04 480.186 343.181 481.019 344.639C481.853 346.088 482.269 347.75 482.269 349.625C482.269 351.424 481.867 353.072 481.062 354.568C480.257 356.055 479.125 357.239 477.667 358.119C476.218 358.991 474.513 359.417 472.553 359.398ZM472.553 356.273C473.746 356.273 474.817 355.974 475.763 355.378C476.72 354.781 477.473 353.981 478.022 352.977C478.581 351.973 478.86 350.856 478.86 349.625C478.86 348.422 478.59 347.329 478.05 346.344C477.52 345.349 476.786 344.559 475.849 343.972C474.921 343.384 473.86 343.091 472.667 343.091C471.767 343.091 470.929 343.271 470.153 343.631C469.376 343.981 468.694 344.464 468.107 345.08C467.53 345.695 467.075 346.401 466.744 347.196C466.412 347.982 466.246 348.811 466.246 349.682C466.246 350.837 466.516 351.917 467.056 352.92C467.605 353.924 468.353 354.734 469.3 355.349C470.257 355.965 471.341 356.273 472.553 356.273ZM501.085 353.545V352.011C501.085 350.951 501.302 349.98 501.738 349.099C502.183 348.209 502.827 347.499 503.67 346.969C504.522 346.429 505.554 346.159 506.766 346.159C507.998 346.159 509.03 346.429 509.863 346.969C510.696 347.499 511.326 348.209 511.752 349.099C512.178 349.98 512.391 350.951 512.391 352.011V353.545C512.391 354.606 512.174 355.581 511.738 356.472C511.312 357.352 510.677 358.062 509.835 358.602C509.001 359.133 507.979 359.398 506.766 359.398C505.535 359.398 504.498 359.133 503.656 358.602C502.813 358.062 502.174 357.352 501.738 356.472C501.302 355.581 501.085 354.606 501.085 353.545ZM503.982 352.011V353.545C503.982 354.426 504.191 355.217 504.607 355.918C505.024 356.609 505.744 356.955 506.766 356.955C507.761 356.955 508.462 356.609 508.869 355.918C509.285 355.217 509.494 354.426 509.494 353.545V352.011C509.494 351.131 509.295 350.345 508.897 349.653C508.499 348.953 507.789 348.602 506.766 348.602C505.772 348.602 505.057 348.953 504.622 349.653C504.195 350.345 503.982 351.131 503.982 352.011ZM486.596 336.898V335.364C486.596 334.303 486.814 333.332 487.249 332.452C487.695 331.562 488.338 330.851 489.181 330.321C490.034 329.781 491.066 329.511 492.278 329.511C493.509 329.511 494.541 329.781 495.374 330.321C496.208 330.851 496.837 331.562 497.264 332.452C497.69 333.332 497.903 334.303 497.903 335.364V336.898C497.903 337.958 497.685 338.934 497.249 339.824C496.823 340.705 496.189 341.415 495.346 341.955C494.513 342.485 493.49 342.75 492.278 342.75C491.047 342.75 490.01 342.485 489.167 341.955C488.324 341.415 487.685 340.705 487.249 339.824C486.814 338.934 486.596 337.958 486.596 336.898ZM489.494 335.364V336.898C489.494 337.778 489.702 338.569 490.119 339.27C490.535 339.961 491.255 340.307 492.278 340.307C493.272 340.307 493.973 339.961 494.38 339.27C494.797 338.569 495.005 337.778 495.005 336.898V335.364C495.005 334.483 494.806 333.697 494.409 333.006C494.011 332.305 493.301 331.955 492.278 331.955C491.284 331.955 490.569 332.305 490.133 333.006C489.707 333.697 489.494 334.483 489.494 335.364ZM487.676 359L507.676 329.909H510.914L490.914 359H487.676Z" fill="#130E30"/>
<path d="M478 285C490.776 285 503.208 289.147 513.425 296.819C523.642 304.49 531.093 315.27 534.657 327.54C538.222 339.809 537.707 352.903 533.191 364.855C528.675 376.807 520.401 386.969 509.614 393.815C498.826 400.661 486.108 403.821 473.371 402.818C460.634 401.816 448.566 396.706 438.983 388.257C429.399 379.807 422.817 368.475 420.226 355.964C417.635 343.453 419.175 330.439 424.615 318.879" stroke="#59E25D" stroke-width="12"/>
<path d="M424.615 318.879C429.382 308.749 436.933 300.184 446.386 294.185C455.839 288.186 466.804 285 478 285" stroke="#3A93FF" stroke-width="12"/>
</g>
<defs>
<filter id="filter0_d_15492_14565" x="147" y="251" width="434" height="190" filterUnits="userSpaceOnUse" color-interpolation-filters="sRGB">
<feFlood flood-opacity="0" result="BackgroundImageFix"/>
<feColorMatrix in="SourceAlpha" type="matrix" values="0 0 0 0 0 0 0 0 0 0 0 0 0 0 0 0 0 0 127 0" result="hardAlpha"/>
<feOffset dy="2"/>
<feGaussianBlur stdDeviation="3"/>
<feComposite in2="hardAlpha" operator="out"/>
<feColorMatrix type="matrix" values="0 0 0 0 0.105882 0 0 0 0 0.141176 0 0 0 0 0.172549 0 0 0 0.1 0"/>
<feBlend mode="normal" in2="BackgroundImageFix" result="effect1_dropShadow_15492_14565"/>
<feBlend mode="normal" in="SourceGraphic" in2="effect1_dropShadow_15492_14565" result="shape"/>
</filter>
</defs>
</svg>
