<svg width="800" height="600" viewBox="0 0 800 600" fill="none" xmlns="http://www.w3.org/2000/svg">
<rect width="800" height="600" fill="#EFF2E5"/>
<g style="mix-blend-mode:multiply">
<path d="M0 116.166C0 69.1302 38.1302 31 85.1661 31H533.834C580.87 31 619 69.1302 619 116.166V342.834C619 389.87 580.87 428 533.834 428H85.1661C38.1301 428 0 389.87 0 342.834V116.166Z" fill="#FFE228"/>
</g>
<g style="mix-blend-mode:multiply">
<path d="M212 174.166C212 127.13 250.13 89 297.166 89H714.834C761.87 89 800 127.13 800 174.166V477.834C800 524.87 761.87 563 714.834 563H297.166C250.13 563 212 524.87 212 477.834V174.166Z" fill="#E261E5"/>
</g>
<g filter="url(#filter0_d_15504_15447)">
<rect x="153" y="255" width="422" height="178" rx="12" fill="white" shape-rendering="crispEdges"/>
<path d="M194.159 306.091H196.67L198.776 308.861L199.33 309.599L202.469 313.773H199.957L197.889 311.003L197.372 310.301L194.159 306.091ZM203.244 302.545C203.244 304.54 202.884 306.263 202.164 307.716C201.444 309.169 200.456 310.289 199.2 311.077C197.945 311.865 196.51 312.259 194.898 312.259C193.285 312.259 191.851 311.865 190.595 311.077C189.339 310.289 188.352 309.169 187.631 307.716C186.911 306.263 186.551 304.54 186.551 302.545C186.551 300.551 186.911 298.828 187.631 297.375C188.352 295.922 189.339 294.802 190.595 294.014C191.851 293.226 193.285 292.832 194.898 292.832C196.51 292.832 197.945 293.226 199.2 294.014C200.456 294.802 201.444 295.922 202.164 297.375C202.884 298.828 203.244 300.551 203.244 302.545ZM201.028 302.545C201.028 300.908 200.754 299.526 200.207 298.4C199.665 297.273 198.929 296.421 198 295.842C197.077 295.264 196.043 294.974 194.898 294.974C193.753 294.974 192.716 295.264 191.786 295.842C190.863 296.421 190.127 297.273 189.58 298.4C189.038 299.526 188.767 300.908 188.767 302.545C188.767 304.183 189.038 305.565 189.58 306.691C190.127 307.817 190.863 308.67 191.786 309.249C192.716 309.827 193.753 310.116 194.898 310.116C196.043 310.116 197.077 309.827 198 309.249C198.929 308.67 199.665 307.817 200.207 306.691C200.754 305.565 201.028 304.183 201.028 302.545ZM215.217 306.202V297.818H217.395V312H215.217V309.599H215.069C214.736 310.32 214.219 310.932 213.518 311.437C212.816 311.935 211.93 312.185 210.859 312.185C209.972 312.185 209.184 311.991 208.495 311.603C207.806 311.209 207.264 310.618 206.87 309.83C206.476 309.036 206.279 308.036 206.279 306.83V297.818H208.458V306.682C208.458 307.716 208.747 308.541 209.326 309.156C209.911 309.772 210.655 310.08 211.56 310.08C212.102 310.08 212.653 309.941 213.213 309.664C213.779 309.387 214.253 308.962 214.635 308.39C215.023 307.817 215.217 307.088 215.217 306.202ZM226.812 312.295C225.446 312.295 224.267 311.994 223.276 311.391C222.291 310.781 221.531 309.932 220.996 308.842C220.466 307.747 220.202 306.473 220.202 305.02C220.202 303.567 220.466 302.287 220.996 301.179C221.531 300.065 222.276 299.197 223.23 298.575C224.19 297.947 225.311 297.634 226.591 297.634C227.329 297.634 228.059 297.757 228.779 298.003C229.499 298.249 230.155 298.649 230.746 299.203C231.337 299.751 231.807 300.477 232.158 301.382C232.509 302.287 232.685 303.401 232.685 304.724V305.648H221.753V303.764H230.469C230.469 302.964 230.309 302.25 229.989 301.622C229.675 300.994 229.225 300.499 228.641 300.136C228.062 299.772 227.379 299.591 226.591 299.591C225.723 299.591 224.972 299.806 224.338 300.237C223.71 300.662 223.227 301.216 222.888 301.899C222.55 302.582 222.381 303.315 222.381 304.097V305.352C222.381 306.423 222.565 307.331 222.935 308.076C223.31 308.815 223.83 309.378 224.495 309.766C225.16 310.147 225.932 310.338 226.812 310.338C227.385 310.338 227.902 310.258 228.364 310.098C228.831 309.932 229.235 309.686 229.573 309.359C229.912 309.027 230.173 308.615 230.358 308.122L232.463 308.713C232.241 309.427 231.869 310.055 231.346 310.597C230.823 311.132 230.176 311.551 229.407 311.852C228.637 312.148 227.773 312.295 226.812 312.295ZM245.525 300.994L243.567 301.548C243.444 301.222 243.263 300.905 243.023 300.597C242.789 300.283 242.469 300.025 242.062 299.822C241.656 299.619 241.136 299.517 240.502 299.517C239.634 299.517 238.911 299.717 238.332 300.117C237.76 300.511 237.474 301.013 237.474 301.622C237.474 302.164 237.671 302.592 238.064 302.906C238.458 303.219 239.074 303.481 239.911 303.69L242.016 304.207C243.284 304.515 244.229 304.986 244.851 305.62C245.472 306.248 245.783 307.057 245.783 308.048C245.783 308.861 245.549 309.587 245.082 310.227C244.62 310.867 243.974 311.372 243.143 311.741C242.312 312.111 241.345 312.295 240.243 312.295C238.797 312.295 237.6 311.982 236.652 311.354C235.704 310.726 235.104 309.809 234.851 308.602L236.92 308.085C237.117 308.848 237.489 309.421 238.037 309.803C238.591 310.184 239.314 310.375 240.207 310.375C241.222 310.375 242.028 310.16 242.626 309.729C243.229 309.292 243.53 308.768 243.53 308.159C243.53 307.667 243.358 307.254 243.013 306.922C242.669 306.583 242.139 306.331 241.425 306.165L239.062 305.611C237.763 305.303 236.809 304.826 236.199 304.18C235.596 303.527 235.295 302.712 235.295 301.733C235.295 300.933 235.519 300.225 235.969 299.609C236.424 298.994 237.043 298.511 237.824 298.16C238.612 297.809 239.505 297.634 240.502 297.634C241.905 297.634 243.007 297.941 243.807 298.557C244.614 299.172 245.186 299.985 245.525 300.994ZM254.711 297.818V299.665H247.361V297.818H254.711ZM249.503 294.42H251.682V307.938C251.682 308.553 251.772 309.015 251.95 309.322C252.135 309.624 252.369 309.827 252.652 309.932C252.941 310.03 253.246 310.08 253.566 310.08C253.806 310.08 254.003 310.067 254.157 310.043C254.311 310.012 254.434 309.987 254.526 309.969L254.969 311.926C254.822 311.982 254.615 312.037 254.351 312.092C254.086 312.154 253.751 312.185 253.344 312.185C252.729 312.185 252.126 312.052 251.535 311.788C250.95 311.523 250.464 311.12 250.076 310.578C249.694 310.036 249.503 309.353 249.503 308.528V294.42ZM257.469 312V297.818H259.648V312H257.469ZM258.576 295.455C258.152 295.455 257.786 295.31 257.478 295.021C257.176 294.731 257.025 294.384 257.025 293.977C257.025 293.571 257.176 293.223 257.478 292.934C257.786 292.645 258.152 292.5 258.576 292.5C259.001 292.5 259.364 292.645 259.666 292.934C259.974 293.223 260.128 293.571 260.128 293.977C260.128 294.384 259.974 294.731 259.666 295.021C259.364 295.31 259.001 295.455 258.576 295.455ZM268.88 312.295C267.6 312.295 266.476 311.991 265.51 311.381C264.55 310.772 263.799 309.92 263.257 308.824C262.721 307.728 262.454 306.448 262.454 304.983C262.454 303.506 262.721 302.216 263.257 301.114C263.799 300.013 264.55 299.157 265.51 298.548C266.476 297.938 267.6 297.634 268.88 297.634C270.16 297.634 271.28 297.938 272.241 298.548C273.207 299.157 273.958 300.013 274.493 301.114C275.035 302.216 275.306 303.506 275.306 304.983C275.306 306.448 275.035 307.728 274.493 308.824C273.958 309.92 273.207 310.772 272.241 311.381C271.28 311.991 270.16 312.295 268.88 312.295ZM268.88 310.338C269.852 310.338 270.653 310.089 271.28 309.59C271.908 309.092 272.373 308.436 272.675 307.624C272.976 306.811 273.127 305.931 273.127 304.983C273.127 304.035 272.976 303.152 272.675 302.333C272.373 301.514 271.908 300.853 271.28 300.348C270.653 299.843 269.852 299.591 268.88 299.591C267.907 299.591 267.107 299.843 266.479 300.348C265.851 300.853 265.387 301.514 265.085 302.333C264.783 303.152 264.633 304.035 264.633 304.983C264.633 305.931 264.783 306.811 265.085 307.624C265.387 308.436 265.851 309.092 266.479 309.59C267.107 310.089 267.907 310.338 268.88 310.338ZM280.291 303.469V312H278.112V297.818H280.217V300.034H280.402C280.734 299.314 281.239 298.735 281.916 298.298C282.593 297.855 283.467 297.634 284.538 297.634C285.498 297.634 286.339 297.83 287.059 298.224C287.779 298.612 288.339 299.203 288.739 299.997C289.139 300.785 289.339 301.782 289.339 302.989V312H287.16V303.136C287.16 302.022 286.871 301.154 286.293 300.533C285.714 299.905 284.92 299.591 283.91 299.591C283.215 299.591 282.593 299.742 282.045 300.043C281.504 300.345 281.076 300.785 280.762 301.364C280.448 301.942 280.291 302.644 280.291 303.469ZM294.98 303.469V312H292.801V297.818H294.906V300.034H295.091C295.423 299.314 295.928 298.735 296.605 298.298C297.282 297.855 298.156 297.634 299.227 297.634C300.187 297.634 301.028 297.83 301.748 298.224C302.468 298.612 303.028 299.203 303.428 299.997C303.828 300.785 304.028 301.782 304.028 302.989V312H301.849V303.136C301.849 302.022 301.56 301.154 300.982 300.533C300.403 299.905 299.609 299.591 298.599 299.591C297.904 299.591 297.282 299.742 296.734 300.043C296.193 300.345 295.765 300.785 295.451 301.364C295.137 301.942 294.98 302.644 294.98 303.469ZM311.663 312.332C310.765 312.332 309.949 312.163 309.217 311.825C308.484 311.48 307.903 310.984 307.472 310.338C307.041 309.686 306.825 308.898 306.825 307.974C306.825 307.162 306.985 306.503 307.305 305.999C307.626 305.488 308.053 305.088 308.589 304.798C309.124 304.509 309.715 304.294 310.362 304.152C311.014 304.004 311.67 303.887 312.328 303.801C313.19 303.69 313.889 303.607 314.424 303.552C314.966 303.49 315.36 303.389 315.606 303.247C315.858 303.106 315.984 302.859 315.984 302.509V302.435C315.984 301.524 315.735 300.816 315.237 300.311C314.744 299.806 313.996 299.554 312.993 299.554C311.953 299.554 311.137 299.782 310.546 300.237C309.955 300.693 309.54 301.179 309.3 301.696L307.232 300.957C307.601 300.096 308.093 299.425 308.709 298.945C309.331 298.458 310.008 298.12 310.74 297.929C311.479 297.732 312.205 297.634 312.919 297.634C313.375 297.634 313.898 297.689 314.489 297.8C315.086 297.904 315.661 298.123 316.215 298.455C316.775 298.788 317.24 299.289 317.609 299.96C317.979 300.631 318.163 301.53 318.163 302.656V312H315.984V310.08H315.874C315.726 310.387 315.48 310.717 315.135 311.067C314.79 311.418 314.332 311.717 313.759 311.963C313.187 312.209 312.488 312.332 311.663 312.332ZM311.996 310.375C312.858 310.375 313.584 310.206 314.175 309.867C314.772 309.529 315.221 309.092 315.523 308.556C315.831 308.021 315.984 307.457 315.984 306.866V304.872C315.892 304.983 315.689 305.085 315.375 305.177C315.067 305.263 314.71 305.34 314.304 305.408C313.904 305.469 313.513 305.525 313.131 305.574C312.756 305.617 312.451 305.654 312.217 305.685C311.651 305.759 311.122 305.879 310.629 306.045C310.143 306.205 309.749 306.448 309.447 306.774C309.152 307.094 309.004 307.531 309.004 308.085C309.004 308.842 309.284 309.415 309.845 309.803C310.411 310.184 311.128 310.375 311.996 310.375ZM321.62 312V297.818H323.799V312H321.62ZM322.728 295.455C322.304 295.455 321.937 295.31 321.63 295.021C321.328 294.731 321.177 294.384 321.177 293.977C321.177 293.571 321.328 293.223 321.63 292.934C321.937 292.645 322.304 292.5 322.728 292.5C323.153 292.5 323.516 292.645 323.818 292.934C324.126 293.223 324.28 293.571 324.28 293.977C324.28 294.384 324.126 294.731 323.818 295.021C323.516 295.31 323.153 295.455 322.728 295.455ZM327.27 312V297.818H329.376V299.96H329.523C329.782 299.259 330.25 298.689 330.927 298.252C331.604 297.815 332.367 297.597 333.216 297.597C333.376 297.597 333.577 297.6 333.817 297.606C334.057 297.612 334.238 297.621 334.361 297.634V299.849C334.287 299.831 334.118 299.803 333.854 299.766C333.595 299.723 333.321 299.702 333.032 299.702C332.342 299.702 331.727 299.846 331.185 300.136C330.65 300.419 330.225 300.813 329.911 301.317C329.603 301.816 329.449 302.385 329.449 303.026V312H327.27ZM341.939 312.295C340.572 312.295 339.393 311.994 338.402 311.391C337.418 310.781 336.657 309.932 336.122 308.842C335.592 307.747 335.328 306.473 335.328 305.02C335.328 303.567 335.592 302.287 336.122 301.179C336.657 300.065 337.402 299.197 338.356 298.575C339.316 297.947 340.437 297.634 341.717 297.634C342.456 297.634 343.185 297.757 343.905 298.003C344.625 298.249 345.281 298.649 345.872 299.203C346.463 299.751 346.934 300.477 347.284 301.382C347.635 302.287 347.811 303.401 347.811 304.724V305.648H336.879V303.764H345.595C345.595 302.964 345.435 302.25 345.115 301.622C344.801 300.994 344.351 300.499 343.767 300.136C343.188 299.772 342.505 299.591 341.717 299.591C340.849 299.591 340.098 299.806 339.464 300.237C338.836 300.662 338.353 301.216 338.015 301.899C337.676 302.582 337.507 303.315 337.507 304.097V305.352C337.507 306.423 337.691 307.331 338.061 308.076C338.436 308.815 338.956 309.378 339.621 309.766C340.286 310.147 341.058 310.338 341.939 310.338C342.511 310.338 343.028 310.258 343.49 310.098C343.958 309.932 344.361 309.686 344.699 309.359C345.038 309.027 345.299 308.615 345.484 308.122L347.589 308.713C347.368 309.427 346.995 310.055 346.472 310.597C345.949 311.132 345.302 311.551 344.533 311.852C343.764 312.148 342.899 312.295 341.939 312.295Z" fill="#130E30"/>
<path d="M185.616 338.141V336.818H193.496V338.141H190.32V347H188.788V338.141H185.616ZM196.948 347.154C196.232 347.154 195.607 346.99 195.073 346.662C194.54 346.334 194.125 345.875 193.83 345.285C193.535 344.695 193.388 344.005 193.388 343.217C193.388 342.424 193.535 341.732 193.83 341.138C194.125 340.545 194.54 340.085 195.073 339.756C195.607 339.428 196.232 339.264 196.948 339.264C197.664 339.264 198.288 339.428 198.822 339.756C199.356 340.085 199.77 340.545 200.065 341.138C200.36 341.732 200.507 342.424 200.507 343.217C200.507 344.005 200.36 344.695 200.065 345.285C199.77 345.875 199.356 346.334 198.822 346.662C198.288 346.99 197.664 347.154 196.948 347.154ZM196.953 345.906C197.417 345.906 197.801 345.784 198.106 345.538C198.411 345.293 198.636 344.967 198.782 344.559C198.931 344.151 199.006 343.702 199.006 343.212C199.006 342.724 198.931 342.277 198.782 341.869C198.636 341.458 198.411 341.129 198.106 340.88C197.801 340.631 197.417 340.507 196.953 340.507C196.485 340.507 196.097 340.631 195.789 340.88C195.484 341.129 195.257 341.458 195.108 341.869C194.962 342.277 194.889 342.724 194.889 343.212C194.889 343.702 194.962 344.151 195.108 344.559C195.257 344.967 195.484 345.293 195.789 345.538C196.097 345.784 196.485 345.906 196.953 345.906ZM205.451 339.364V340.557H201.28V339.364H205.451ZM202.399 337.534H203.885V344.758C203.885 345.046 203.928 345.263 204.014 345.409C204.101 345.552 204.212 345.649 204.347 345.702C204.487 345.752 204.638 345.777 204.8 345.777C204.919 345.777 205.024 345.769 205.113 345.752C205.203 345.736 205.272 345.722 205.322 345.712L205.59 346.94C205.504 346.973 205.382 347.007 205.222 347.04C205.063 347.076 204.865 347.096 204.626 347.099C204.235 347.106 203.87 347.036 203.532 346.891C203.194 346.745 202.921 346.519 202.712 346.214C202.503 345.91 202.399 345.527 202.399 345.066V337.534ZM209.038 347.169C208.554 347.169 208.116 347.08 207.725 346.901C207.334 346.718 207.024 346.455 206.796 346.11C206.57 345.765 206.458 345.343 206.458 344.842C206.458 344.411 206.54 344.057 206.706 343.778C206.872 343.5 207.096 343.28 207.377 343.117C207.659 342.955 207.974 342.832 208.322 342.749C208.67 342.666 209.025 342.603 209.386 342.56C209.843 342.507 210.214 342.464 210.499 342.431C210.785 342.395 210.992 342.337 211.121 342.257C211.25 342.178 211.315 342.048 211.315 341.869V341.835C211.315 341.4 211.192 341.064 210.947 340.825C210.705 340.587 210.344 340.467 209.863 340.467C209.363 340.467 208.968 340.578 208.68 340.8C208.395 341.019 208.198 341.263 208.088 341.531L206.691 341.213C206.857 340.749 207.099 340.375 207.417 340.089C207.739 339.801 208.108 339.592 208.526 339.463C208.943 339.33 209.383 339.264 209.843 339.264C210.148 339.264 210.471 339.301 210.813 339.374C211.157 339.443 211.479 339.572 211.777 339.761C212.079 339.95 212.326 340.22 212.518 340.572C212.71 340.92 212.806 341.372 212.806 341.929V347H211.355V345.956H211.295C211.199 346.148 211.055 346.337 210.862 346.523C210.67 346.708 210.423 346.862 210.122 346.985C209.82 347.108 209.459 347.169 209.038 347.169ZM209.361 345.976C209.772 345.976 210.123 345.895 210.415 345.732C210.71 345.57 210.934 345.358 211.086 345.096C211.242 344.831 211.32 344.547 211.32 344.246V343.261C211.267 343.314 211.164 343.364 211.012 343.411C210.862 343.454 210.692 343.492 210.499 343.525C210.307 343.555 210.12 343.583 209.938 343.609C209.755 343.633 209.603 343.652 209.48 343.669C209.192 343.705 208.928 343.767 208.69 343.853C208.455 343.939 208.266 344.063 208.123 344.226C207.984 344.385 207.914 344.597 207.914 344.862C207.914 345.23 208.05 345.509 208.322 345.697C208.594 345.883 208.94 345.976 209.361 345.976ZM215.993 336.818V347H214.506V336.818H215.993Z" fill="#130E30"/>
<path d="M352.099 347.139C351.416 347.139 350.806 347.022 350.27 346.786C349.736 346.551 349.313 346.224 349.002 345.807C348.694 345.386 348.528 344.899 348.505 344.345H350.066C350.086 344.647 350.187 344.909 350.369 345.131C350.555 345.349 350.797 345.518 351.095 345.638C351.393 345.757 351.725 345.817 352.089 345.817C352.49 345.817 352.845 345.747 353.153 345.608C353.465 345.469 353.708 345.275 353.884 345.026C354.06 344.774 354.147 344.484 354.147 344.156C354.147 343.815 354.06 343.515 353.884 343.256C353.712 342.995 353.458 342.789 353.123 342.64C352.792 342.491 352.391 342.416 351.92 342.416H351.06V341.163H351.92C352.298 341.163 352.629 341.095 352.914 340.96C353.203 340.824 353.428 340.635 353.591 340.393C353.753 340.147 353.834 339.861 353.834 339.533C353.834 339.218 353.763 338.944 353.62 338.712C353.481 338.477 353.282 338.293 353.024 338.161C352.769 338.028 352.467 337.962 352.119 337.962C351.788 337.962 351.478 338.023 351.189 338.146C350.904 338.265 350.672 338.437 350.493 338.663C350.314 338.885 350.218 339.152 350.205 339.463H348.718C348.735 338.913 348.897 338.429 349.206 338.011C349.517 337.594 349.928 337.267 350.439 337.032C350.949 336.797 351.516 336.679 352.139 336.679C352.792 336.679 353.355 336.807 353.829 337.062C354.306 337.314 354.674 337.65 354.933 338.071C355.195 338.492 355.324 338.953 355.321 339.453C355.324 340.023 355.165 340.507 354.843 340.905C354.525 341.303 354.101 341.569 353.571 341.705V341.785C354.247 341.888 354.77 342.156 355.142 342.59C355.516 343.024 355.702 343.563 355.699 344.206C355.702 344.766 355.546 345.268 355.231 345.712C354.92 346.156 354.494 346.506 353.953 346.761C353.413 347.013 352.795 347.139 352.099 347.139ZM360.659 347.139C360.035 347.139 359.475 347.02 358.978 346.781C358.484 346.539 358.09 346.208 357.795 345.787C357.5 345.366 357.343 344.885 357.323 344.345H358.814C358.851 344.783 359.044 345.142 359.396 345.424C359.747 345.706 360.168 345.847 360.659 345.847C361.05 345.847 361.396 345.757 361.698 345.578C362.003 345.396 362.241 345.146 362.414 344.827C362.589 344.509 362.677 344.146 362.677 343.739C362.677 343.324 362.588 342.955 362.409 342.63C362.23 342.305 361.983 342.05 361.668 341.864C361.356 341.679 360.998 341.584 360.594 341.581C360.286 341.581 359.976 341.634 359.664 341.74C359.353 341.846 359.101 341.985 358.909 342.158L357.502 341.949L358.073 336.818H363.671V338.136H359.351L359.028 340.984H359.088C359.286 340.792 359.55 340.631 359.878 340.502C360.209 340.373 360.564 340.308 360.942 340.308C361.562 340.308 362.114 340.456 362.597 340.751C363.085 341.046 363.468 341.448 363.746 341.959C364.028 342.466 364.167 343.049 364.164 343.709C364.167 344.368 364.018 344.957 363.716 345.474C363.418 345.991 363.003 346.398 362.473 346.697C361.946 346.992 361.341 347.139 360.659 347.139Z" fill="#130E30"/>
<circle cx="191" cy="369" r="6" fill="#3A93FF"/>
<path d="M206.651 373H205.358L209.097 362.818H210.369L214.108 373H212.815L209.773 364.429H209.693L206.651 373ZM207.128 369.023H212.338V370.116H207.128V369.023ZM216.647 362.818V373H215.414V362.818H216.647ZM227.746 367.074L226.692 367.372C226.626 367.196 226.528 367.026 226.399 366.86C226.273 366.691 226.101 366.552 225.882 366.442C225.663 366.333 225.383 366.278 225.042 366.278C224.575 366.278 224.185 366.386 223.874 366.602C223.565 366.814 223.411 367.084 223.411 367.412C223.411 367.704 223.517 367.934 223.729 368.103C223.942 368.272 224.273 368.413 224.724 368.526L225.857 368.804C226.54 368.97 227.049 369.223 227.384 369.565C227.718 369.903 227.886 370.339 227.886 370.872C227.886 371.31 227.76 371.701 227.508 372.045C227.259 372.39 226.911 372.662 226.464 372.861C226.016 373.06 225.496 373.159 224.903 373.159C224.124 373.159 223.479 372.99 222.969 372.652C222.458 372.314 222.135 371.82 221.999 371.17L223.113 370.892C223.219 371.303 223.42 371.611 223.715 371.817C224.013 372.022 224.402 372.125 224.883 372.125C225.43 372.125 225.864 372.009 226.185 371.777C226.51 371.542 226.673 371.26 226.673 370.932C226.673 370.667 226.58 370.445 226.394 370.266C226.209 370.083 225.924 369.947 225.539 369.858L224.266 369.56C223.567 369.394 223.053 369.137 222.725 368.789C222.4 368.438 222.238 367.999 222.238 367.472C222.238 367.041 222.359 366.66 222.601 366.328C222.846 365.997 223.179 365.737 223.6 365.548C224.024 365.359 224.505 365.264 225.042 365.264C225.798 365.264 226.391 365.43 226.822 365.761C227.256 366.093 227.564 366.53 227.746 367.074ZM234.184 369.878V365.364H235.358V373H234.184V371.707H234.105C233.926 372.095 233.647 372.425 233.27 372.697C232.892 372.965 232.414 373.099 231.838 373.099C231.36 373.099 230.936 372.995 230.565 372.786C230.194 372.574 229.902 372.256 229.69 371.832C229.478 371.404 229.372 370.866 229.372 370.216V365.364H230.545V370.136C230.545 370.693 230.701 371.137 231.012 371.469C231.327 371.8 231.728 371.966 232.216 371.966C232.507 371.966 232.804 371.891 233.105 371.742C233.41 371.593 233.666 371.364 233.871 371.056C234.08 370.748 234.184 370.355 234.184 369.878ZM240.309 376.023C239.742 376.023 239.255 375.95 238.847 375.804C238.44 375.661 238.1 375.473 237.828 375.237C237.56 375.005 237.346 374.757 237.187 374.491L238.121 373.835C238.228 373.974 238.362 374.134 238.524 374.312C238.687 374.495 238.909 374.652 239.19 374.785C239.475 374.921 239.848 374.989 240.309 374.989C240.925 374.989 241.434 374.839 241.835 374.541C242.236 374.243 242.437 373.776 242.437 373.139V371.588H242.337C242.251 371.727 242.129 371.9 241.969 372.105C241.814 372.307 241.588 372.488 241.293 372.647C241.002 372.803 240.607 372.881 240.11 372.881C239.494 372.881 238.94 372.735 238.45 372.443C237.962 372.152 237.576 371.727 237.291 371.17C237.01 370.614 236.869 369.937 236.869 369.142C236.869 368.36 237.006 367.679 237.281 367.099C237.556 366.515 237.939 366.065 238.43 365.746C238.92 365.425 239.487 365.264 240.13 365.264C240.627 365.264 241.022 365.347 241.313 365.513C241.608 365.675 241.834 365.861 241.989 366.07C242.148 366.275 242.271 366.444 242.357 366.577H242.477V365.364H243.61V373.219C243.61 373.875 243.461 374.409 243.163 374.82C242.868 375.234 242.47 375.537 241.969 375.729C241.472 375.925 240.919 376.023 240.309 376.023ZM240.269 371.827C240.74 371.827 241.138 371.719 241.462 371.504C241.787 371.288 242.034 370.978 242.203 370.574C242.372 370.17 242.457 369.686 242.457 369.122C242.457 368.572 242.374 368.086 242.208 367.665C242.042 367.245 241.797 366.915 241.472 366.676C241.148 366.437 240.746 366.318 240.269 366.318C239.772 366.318 239.358 366.444 239.026 366.696C238.698 366.948 238.451 367.286 238.286 367.71C238.123 368.134 238.042 368.605 238.042 369.122C238.042 369.652 238.125 370.121 238.291 370.529C238.46 370.933 238.708 371.252 239.036 371.484C239.368 371.712 239.779 371.827 240.269 371.827ZM248.56 376.023C247.993 376.023 247.506 375.95 247.099 375.804C246.691 375.661 246.351 375.473 246.079 375.237C245.811 375.005 245.597 374.757 245.438 374.491L246.373 373.835C246.479 373.974 246.613 374.134 246.775 374.312C246.938 374.495 247.16 374.652 247.442 374.785C247.727 374.921 248.1 374.989 248.56 374.989C249.177 374.989 249.685 374.839 250.087 374.541C250.488 374.243 250.688 373.776 250.688 373.139V371.588H250.589C250.502 371.727 250.38 371.9 250.221 372.105C250.065 372.307 249.84 372.488 249.545 372.647C249.253 372.803 248.859 372.881 248.361 372.881C247.745 372.881 247.191 372.735 246.701 372.443C246.214 372.152 245.828 371.727 245.542 371.17C245.261 370.614 245.12 369.937 245.12 369.142C245.12 368.36 245.257 367.679 245.533 367.099C245.808 366.515 246.19 366.065 246.681 365.746C247.172 365.425 247.738 365.264 248.381 365.264C248.878 365.264 249.273 365.347 249.564 365.513C249.859 365.675 250.085 365.861 250.241 366.07C250.4 366.275 250.522 366.444 250.609 366.577H250.728V365.364H251.861V373.219C251.861 373.875 251.712 374.409 251.414 374.82C251.119 375.234 250.721 375.537 250.221 375.729C249.724 375.925 249.17 376.023 248.56 376.023ZM248.52 371.827C248.991 371.827 249.389 371.719 249.714 371.504C250.038 371.288 250.285 370.978 250.454 370.574C250.623 370.17 250.708 369.686 250.708 369.122C250.708 368.572 250.625 368.086 250.459 367.665C250.294 367.245 250.048 366.915 249.724 366.676C249.399 366.437 248.998 366.318 248.52 366.318C248.023 366.318 247.609 366.444 247.278 366.696C246.949 366.948 246.703 367.286 246.537 367.71C246.374 368.134 246.293 368.605 246.293 369.122C246.293 369.652 246.376 370.121 246.542 370.529C246.711 370.933 246.959 371.252 247.288 371.484C247.619 371.712 248.03 371.827 248.52 371.827ZM256.931 373.159C256.195 373.159 255.56 372.997 255.027 372.672C254.496 372.344 254.087 371.886 253.799 371.3C253.514 370.71 253.371 370.024 253.371 369.241C253.371 368.459 253.514 367.77 253.799 367.173C254.087 366.573 254.488 366.106 255.002 365.771C255.519 365.433 256.122 365.264 256.811 365.264C257.209 365.264 257.602 365.33 257.99 365.463C258.378 365.596 258.731 365.811 259.049 366.109C259.367 366.404 259.62 366.795 259.809 367.283C259.998 367.77 260.093 368.37 260.093 369.082V369.58H254.206V368.565H258.9C258.9 368.134 258.813 367.75 258.641 367.412C258.472 367.074 258.23 366.807 257.915 366.612C257.604 366.416 257.236 366.318 256.811 366.318C256.344 366.318 255.94 366.434 255.598 366.666C255.26 366.895 255 367.193 254.818 367.561C254.636 367.929 254.544 368.323 254.544 368.744V369.42C254.544 369.997 254.644 370.486 254.843 370.887C255.045 371.285 255.325 371.588 255.683 371.797C256.041 372.002 256.457 372.105 256.931 372.105C257.239 372.105 257.517 372.062 257.766 371.976C258.018 371.886 258.235 371.754 258.417 371.578C258.6 371.399 258.74 371.177 258.84 370.912L259.973 371.23C259.854 371.615 259.654 371.953 259.372 372.244C259.09 372.533 258.742 372.758 258.328 372.92C257.914 373.08 257.448 373.159 256.931 373.159ZM267.007 367.074L265.953 367.372C265.886 367.196 265.789 367.026 265.659 366.86C265.533 366.691 265.361 366.552 265.142 366.442C264.924 366.333 264.643 366.278 264.302 366.278C263.835 366.278 263.445 366.386 263.134 366.602C262.826 366.814 262.671 367.084 262.671 367.412C262.671 367.704 262.777 367.934 262.99 368.103C263.202 368.272 263.533 368.413 263.984 368.526L265.117 368.804C265.8 368.97 266.309 369.223 266.644 369.565C266.978 369.903 267.146 370.339 267.146 370.872C267.146 371.31 267.02 371.701 266.768 372.045C266.519 372.39 266.171 372.662 265.724 372.861C265.277 373.06 264.756 373.159 264.163 373.159C263.384 373.159 262.739 372.99 262.229 372.652C261.719 372.314 261.395 371.82 261.259 371.17L262.373 370.892C262.479 371.303 262.68 371.611 262.975 371.817C263.273 372.022 263.662 372.125 264.143 372.125C264.69 372.125 265.124 372.009 265.446 371.777C265.77 371.542 265.933 371.26 265.933 370.932C265.933 370.667 265.84 370.445 265.654 370.266C265.469 370.083 265.184 369.947 264.799 369.858L263.527 369.56C262.827 369.394 262.313 369.137 261.985 368.789C261.661 368.438 261.498 367.999 261.498 367.472C261.498 367.041 261.619 366.66 261.861 366.328C262.106 365.997 262.439 365.737 262.86 365.548C263.285 365.359 263.765 365.264 264.302 365.264C265.058 365.264 265.651 365.43 266.082 365.761C266.516 366.093 266.824 366.53 267.007 367.074ZM271.953 365.364V366.358H267.996V365.364H271.953ZM269.149 363.534H270.322V370.812C270.322 371.144 270.37 371.393 270.467 371.558C270.566 371.721 270.692 371.83 270.844 371.886C271 371.939 271.164 371.966 271.337 371.966C271.466 371.966 271.572 371.959 271.655 371.946C271.738 371.929 271.804 371.916 271.854 371.906L272.092 372.96C272.013 372.99 271.902 373.02 271.759 373.05C271.617 373.083 271.436 373.099 271.217 373.099C270.886 373.099 270.561 373.028 270.243 372.886C269.928 372.743 269.666 372.526 269.457 372.234C269.252 371.943 269.149 371.575 269.149 371.131V363.534ZM273.438 373V365.364H274.611V373H273.438ZM274.035 364.091C273.806 364.091 273.609 364.013 273.443 363.857C273.28 363.701 273.199 363.514 273.199 363.295C273.199 363.077 273.28 362.889 273.443 362.734C273.609 362.578 273.806 362.5 274.035 362.5C274.263 362.5 274.459 362.578 274.621 362.734C274.787 362.889 274.87 363.077 274.87 363.295C274.87 363.514 274.787 363.701 274.621 363.857C274.459 364.013 274.263 364.091 274.035 364.091ZM279.582 373.159C278.893 373.159 278.288 372.995 277.768 372.667C277.251 372.339 276.846 371.88 276.555 371.29C276.266 370.7 276.122 370.01 276.122 369.222C276.122 368.426 276.266 367.732 276.555 367.138C276.846 366.545 277.251 366.085 277.768 365.756C278.288 365.428 278.893 365.264 279.582 365.264C280.272 365.264 280.875 365.428 281.392 365.756C281.912 366.085 282.317 366.545 282.605 367.138C282.897 367.732 283.043 368.426 283.043 369.222C283.043 370.01 282.897 370.7 282.605 371.29C282.317 371.88 281.912 372.339 281.392 372.667C280.875 372.995 280.272 373.159 279.582 373.159ZM279.582 372.105C280.106 372.105 280.537 371.971 280.875 371.702C281.213 371.434 281.463 371.081 281.626 370.643C281.788 370.206 281.869 369.732 281.869 369.222C281.869 368.711 281.788 368.236 281.626 367.795C281.463 367.354 281.213 366.998 280.875 366.726C280.537 366.454 280.106 366.318 279.582 366.318C279.059 366.318 278.628 366.454 278.29 366.726C277.952 366.998 277.702 367.354 277.539 367.795C277.377 368.236 277.296 368.711 277.296 369.222C277.296 369.732 277.377 370.206 277.539 370.643C277.702 371.081 277.952 371.434 278.29 371.702C278.628 371.971 279.059 372.105 279.582 372.105ZM285.727 368.406V373H284.554V365.364H285.687V366.557H285.787C285.966 366.169 286.237 365.857 286.602 365.622C286.967 365.384 287.437 365.264 288.014 365.264C288.531 365.264 288.983 365.37 289.371 365.582C289.759 365.791 290.061 366.109 290.276 366.537C290.491 366.961 290.599 367.498 290.599 368.148V373H289.426V368.227C289.426 367.627 289.27 367.16 288.959 366.825C288.647 366.487 288.219 366.318 287.676 366.318C287.301 366.318 286.967 366.399 286.672 366.562C286.38 366.724 286.15 366.961 285.981 367.273C285.812 367.584 285.727 367.962 285.727 368.406ZM297.872 367.074L296.818 367.372C296.752 367.196 296.654 367.026 296.525 366.86C296.399 366.691 296.227 366.552 296.008 366.442C295.789 366.333 295.509 366.278 295.168 366.278C294.7 366.278 294.311 366.386 293.999 366.602C293.691 366.814 293.537 367.084 293.537 367.412C293.537 367.704 293.643 367.934 293.855 368.103C294.067 368.272 294.399 368.413 294.85 368.526L295.983 368.804C296.666 368.97 297.175 369.223 297.509 369.565C297.844 369.903 298.011 370.339 298.011 370.872C298.011 371.31 297.886 371.701 297.634 372.045C297.385 372.39 297.037 372.662 296.59 372.861C296.142 373.06 295.622 373.159 295.029 373.159C294.25 373.159 293.605 372.99 293.095 372.652C292.584 372.314 292.261 371.82 292.125 371.17L293.239 370.892C293.345 371.303 293.545 371.611 293.84 371.817C294.139 372.022 294.528 372.125 295.009 372.125C295.555 372.125 295.99 372.009 296.311 371.777C296.636 371.542 296.798 371.26 296.798 370.932C296.798 370.667 296.706 370.445 296.52 370.266C296.334 370.083 296.049 369.947 295.665 369.858L294.392 369.56C293.693 369.394 293.179 369.137 292.851 368.789C292.526 368.438 292.364 367.999 292.364 367.472C292.364 367.041 292.485 366.66 292.727 366.328C292.972 365.997 293.305 365.737 293.726 365.548C294.15 365.359 294.631 365.264 295.168 365.264C295.923 365.264 296.517 365.43 296.948 365.761C297.382 366.093 297.69 366.53 297.872 367.074Z" fill="#130E30"/>
<path d="M360.698 373.139C360.281 373.133 359.863 373.053 359.445 372.901C359.028 372.748 358.647 372.491 358.302 372.13C357.957 371.765 357.681 371.273 357.472 370.653C357.263 370.03 357.159 369.248 357.159 368.307C357.159 367.405 357.243 366.607 357.412 365.911C357.581 365.211 357.826 364.623 358.148 364.146C358.469 363.665 358.857 363.3 359.311 363.052C359.769 362.803 360.284 362.679 360.857 362.679C361.427 362.679 361.935 362.793 362.379 363.022C362.826 363.247 363.191 363.562 363.472 363.967C363.754 364.371 363.936 364.837 364.019 365.364H362.806C362.694 364.906 362.475 364.527 362.15 364.225C361.825 363.924 361.394 363.773 360.857 363.773C360.069 363.773 359.447 364.116 358.993 364.802C358.542 365.488 358.315 366.451 358.312 367.69H358.392C358.577 367.409 358.798 367.168 359.053 366.969C359.311 366.767 359.596 366.612 359.908 366.502C360.219 366.393 360.549 366.338 360.897 366.338C361.481 366.338 362.014 366.484 362.498 366.776C362.982 367.064 363.37 367.463 363.661 367.974C363.953 368.481 364.099 369.062 364.099 369.719C364.099 370.348 363.958 370.925 363.676 371.449C363.395 371.969 362.999 372.384 362.488 372.692C361.981 372.997 361.384 373.146 360.698 373.139ZM360.698 372.045C361.116 372.045 361.49 371.941 361.822 371.732C362.157 371.523 362.42 371.243 362.612 370.892C362.808 370.541 362.906 370.15 362.906 369.719C362.906 369.298 362.811 368.915 362.622 368.57C362.437 368.222 362.18 367.946 361.852 367.74C361.527 367.535 361.156 367.432 360.738 367.432C360.423 367.432 360.13 367.495 359.858 367.621C359.586 367.743 359.348 367.912 359.142 368.128C358.94 368.343 358.781 368.59 358.665 368.869C358.549 369.144 358.491 369.434 358.491 369.739C358.491 370.143 358.585 370.521 358.774 370.872C358.967 371.223 359.228 371.507 359.56 371.722C359.895 371.938 360.274 372.045 360.698 372.045Z" fill="#130E30"/>
<circle cx="191" cy="395" r="6" fill="#59E25D"/>
<path d="M206.651 388.818L209.673 397.389H209.793L212.815 388.818H214.108L210.369 399H209.097L205.358 388.818H206.651ZM216.791 399.179C216.307 399.179 215.868 399.088 215.474 398.906C215.079 398.72 214.766 398.453 214.534 398.105C214.302 397.754 214.186 397.33 214.186 396.832C214.186 396.395 214.272 396.04 214.444 395.768C214.617 395.493 214.847 395.278 215.135 395.122C215.424 394.966 215.742 394.85 216.09 394.774C216.441 394.695 216.794 394.632 217.149 394.585C217.613 394.526 217.989 394.481 218.278 394.451C218.569 394.418 218.781 394.363 218.914 394.287C219.05 394.211 219.118 394.078 219.118 393.889V393.849C219.118 393.359 218.983 392.978 218.715 392.706C218.45 392.434 218.047 392.298 217.507 392.298C216.947 392.298 216.508 392.421 216.189 392.666C215.871 392.911 215.648 393.173 215.518 393.452L214.405 393.054C214.604 392.59 214.869 392.229 215.2 391.97C215.535 391.708 215.899 391.526 216.294 391.423C216.692 391.317 217.083 391.264 217.467 391.264C217.712 391.264 217.994 391.294 218.312 391.354C218.634 391.41 218.944 391.528 219.242 391.707C219.544 391.886 219.794 392.156 219.993 392.517C220.192 392.878 220.291 393.362 220.291 393.969V399H219.118V397.966H219.058C218.979 398.132 218.846 398.309 218.66 398.498C218.475 398.687 218.228 398.848 217.92 398.98C217.611 399.113 217.235 399.179 216.791 399.179ZM216.97 398.125C217.434 398.125 217.825 398.034 218.143 397.852C218.465 397.669 218.707 397.434 218.869 397.146C219.035 396.857 219.118 396.554 219.118 396.236V395.162C219.068 395.222 218.959 395.276 218.79 395.326C218.624 395.372 218.432 395.414 218.213 395.45C217.997 395.483 217.787 395.513 217.582 395.54C217.379 395.563 217.215 395.583 217.089 395.599C216.784 395.639 216.499 395.704 216.234 395.793C215.972 395.879 215.76 396.01 215.598 396.186C215.439 396.358 215.359 396.594 215.359 396.892C215.359 397.3 215.51 397.608 215.812 397.817C216.117 398.022 216.503 398.125 216.97 398.125ZM223.326 388.818V399H222.153V388.818H223.326ZM225.195 399V391.364H226.368V399H225.195ZM225.791 390.091C225.563 390.091 225.365 390.013 225.2 389.857C225.037 389.701 224.956 389.514 224.956 389.295C224.956 389.077 225.037 388.889 225.2 388.734C225.365 388.578 225.563 388.5 225.791 388.5C226.02 388.5 226.216 388.578 226.378 388.734C226.544 388.889 226.627 389.077 226.627 389.295C226.627 389.514 226.544 389.701 226.378 389.857C226.216 390.013 226.02 390.091 225.791 390.091ZM231.121 399.159C230.484 399.159 229.922 398.998 229.435 398.677C228.948 398.352 228.567 397.895 228.292 397.305C228.017 396.711 227.879 396.01 227.879 395.202C227.879 394.4 228.017 393.704 228.292 393.114C228.567 392.524 228.95 392.068 229.44 391.746C229.931 391.425 230.497 391.264 231.14 391.264C231.638 391.264 232.03 391.347 232.319 391.513C232.61 391.675 232.832 391.861 232.985 392.07C233.141 392.275 233.262 392.444 233.348 392.577H233.447V388.818H234.621V399H233.487V397.827H233.348C233.262 397.966 233.139 398.142 232.98 398.354C232.821 398.562 232.594 398.75 232.299 398.915C232.004 399.078 231.611 399.159 231.121 399.159ZM231.28 398.105C231.75 398.105 232.148 397.982 232.473 397.737C232.798 397.489 233.045 397.146 233.214 396.708C233.383 396.267 233.467 395.759 233.467 395.182C233.467 394.612 233.384 394.113 233.219 393.685C233.053 393.254 232.808 392.92 232.483 392.681C232.158 392.439 231.757 392.318 231.28 392.318C230.783 392.318 230.368 392.446 230.037 392.701C229.709 392.953 229.462 393.296 229.296 393.73C229.134 394.161 229.052 394.645 229.052 395.182C229.052 395.725 229.135 396.219 229.301 396.663C229.47 397.104 229.719 397.455 230.047 397.717C230.378 397.976 230.789 398.105 231.28 398.105ZM238.9 399.179C238.416 399.179 237.976 399.088 237.582 398.906C237.188 398.72 236.874 398.453 236.642 398.105C236.41 397.754 236.294 397.33 236.294 396.832C236.294 396.395 236.381 396.04 236.553 395.768C236.725 395.493 236.956 395.278 237.244 395.122C237.532 394.966 237.851 394.85 238.199 394.774C238.55 394.695 238.903 394.632 239.257 394.585C239.722 394.526 240.098 394.481 240.386 394.451C240.678 394.418 240.89 394.363 241.022 394.287C241.158 394.211 241.226 394.078 241.226 393.889V393.849C241.226 393.359 241.092 392.978 240.824 392.706C240.558 392.434 240.156 392.298 239.615 392.298C239.055 392.298 238.616 392.421 238.298 392.666C237.98 392.911 237.756 393.173 237.627 393.452L236.513 393.054C236.712 392.59 236.977 392.229 237.309 391.97C237.643 391.708 238.008 391.526 238.402 391.423C238.8 391.317 239.191 391.264 239.576 391.264C239.821 391.264 240.103 391.294 240.421 391.354C240.742 391.41 241.052 391.528 241.351 391.707C241.652 391.886 241.902 392.156 242.101 392.517C242.3 392.878 242.4 393.362 242.4 393.969V399H241.226V397.966H241.167C241.087 398.132 240.954 398.309 240.769 398.498C240.583 398.687 240.336 398.848 240.028 398.98C239.72 399.113 239.344 399.179 238.9 399.179ZM239.079 398.125C239.543 398.125 239.934 398.034 240.252 397.852C240.573 397.669 240.815 397.434 240.978 397.146C241.143 396.857 241.226 396.554 241.226 396.236V395.162C241.177 395.222 241.067 395.276 240.898 395.326C240.732 395.372 240.54 395.414 240.321 395.45C240.106 395.483 239.896 395.513 239.69 395.54C239.488 395.563 239.324 395.583 239.198 395.599C238.893 395.639 238.608 395.704 238.343 395.793C238.081 395.879 237.869 396.01 237.706 396.186C237.547 396.358 237.468 396.594 237.468 396.892C237.468 397.3 237.619 397.608 237.92 397.817C238.225 398.022 238.611 398.125 239.079 398.125ZM247.582 391.364V392.358H243.625V391.364H247.582ZM244.778 389.534H245.951V396.812C245.951 397.144 245.999 397.393 246.096 397.558C246.195 397.721 246.321 397.83 246.473 397.886C246.629 397.939 246.793 397.966 246.966 397.966C247.095 397.966 247.201 397.959 247.284 397.946C247.367 397.929 247.433 397.916 247.483 397.906L247.721 398.96C247.642 398.99 247.531 399.02 247.388 399.05C247.246 399.083 247.065 399.099 246.846 399.099C246.515 399.099 246.19 399.028 245.872 398.886C245.557 398.743 245.295 398.526 245.086 398.234C244.881 397.943 244.778 397.575 244.778 397.131V389.534ZM252.187 399.159C251.451 399.159 250.816 398.997 250.283 398.672C249.752 398.344 249.343 397.886 249.055 397.3C248.77 396.71 248.627 396.024 248.627 395.241C248.627 394.459 248.77 393.77 249.055 393.173C249.343 392.573 249.744 392.106 250.258 391.771C250.775 391.433 251.378 391.264 252.067 391.264C252.465 391.264 252.858 391.33 253.246 391.463C253.633 391.596 253.986 391.811 254.305 392.109C254.623 392.404 254.876 392.795 255.065 393.283C255.254 393.77 255.349 394.37 255.349 395.082V395.58H249.462V394.565H254.155C254.155 394.134 254.069 393.75 253.897 393.412C253.728 393.074 253.486 392.807 253.171 392.612C252.859 392.416 252.492 392.318 252.067 392.318C251.6 392.318 251.196 392.434 250.854 392.666C250.516 392.895 250.256 393.193 250.074 393.561C249.891 393.929 249.8 394.323 249.8 394.744V395.42C249.8 395.997 249.9 396.486 250.099 396.887C250.301 397.285 250.581 397.588 250.939 397.797C251.297 398.002 251.713 398.105 252.187 398.105C252.495 398.105 252.773 398.062 253.022 397.976C253.274 397.886 253.491 397.754 253.673 397.578C253.855 397.399 253.996 397.177 254.096 396.912L255.229 397.23C255.11 397.615 254.909 397.953 254.628 398.244C254.346 398.533 253.998 398.758 253.584 398.92C253.169 399.08 252.704 399.159 252.187 399.159ZM259.737 399.159C259.101 399.159 258.539 398.998 258.052 398.677C257.564 398.352 257.183 397.895 256.908 397.305C256.633 396.711 256.495 396.01 256.495 395.202C256.495 394.4 256.633 393.704 256.908 393.114C257.183 392.524 257.566 392.068 258.057 391.746C258.547 391.425 259.114 391.264 259.757 391.264C260.254 391.264 260.647 391.347 260.935 391.513C261.227 391.675 261.449 391.861 261.601 392.07C261.757 392.275 261.878 392.444 261.964 392.577H262.064V388.818H263.237V399H262.103V397.827H261.964C261.878 397.966 261.755 398.142 261.596 398.354C261.437 398.562 261.21 398.75 260.915 398.915C260.62 399.078 260.227 399.159 259.737 399.159ZM259.896 398.105C260.367 398.105 260.764 397.982 261.089 397.737C261.414 397.489 261.661 397.146 261.83 396.708C261.999 396.267 262.084 395.759 262.084 395.182C262.084 394.612 262.001 394.113 261.835 393.685C261.669 393.254 261.424 392.92 261.099 392.681C260.774 392.439 260.373 392.318 259.896 392.318C259.399 392.318 258.985 392.446 258.653 392.701C258.325 392.953 258.078 393.296 257.912 393.73C257.75 394.161 257.669 394.645 257.669 395.182C257.669 395.725 257.752 396.219 257.917 396.663C258.086 397.104 258.335 397.455 258.663 397.717C258.994 397.976 259.405 398.105 259.896 398.105ZM274.136 401.864V397.827H274.037C273.951 397.966 273.828 398.142 273.669 398.354C273.51 398.562 273.283 398.75 272.988 398.915C272.693 399.078 272.3 399.159 271.81 399.159C271.173 399.159 270.612 398.998 270.124 398.677C269.637 398.352 269.256 397.895 268.981 397.305C268.706 396.711 268.568 396.01 268.568 395.202C268.568 394.4 268.706 393.704 268.981 393.114C269.256 392.524 269.639 392.068 270.129 391.746C270.62 391.425 271.187 391.264 271.83 391.264C272.327 391.264 272.72 391.347 273.008 391.513C273.3 391.675 273.522 391.861 273.674 392.07C273.83 392.275 273.951 392.444 274.037 392.577H274.176V391.364H275.31V401.864H274.136ZM271.969 398.105C272.439 398.105 272.837 397.982 273.162 397.737C273.487 397.489 273.734 397.146 273.903 396.708C274.072 396.267 274.156 395.759 274.156 395.182C274.156 394.612 274.073 394.113 273.908 393.685C273.742 393.254 273.497 392.92 273.172 392.681C272.847 392.439 272.446 392.318 271.969 392.318C271.472 392.318 271.057 392.446 270.726 392.701C270.398 392.953 270.151 393.296 269.985 393.73C269.823 394.161 269.742 394.645 269.742 395.182C269.742 395.725 269.824 396.219 269.99 396.663C270.159 397.104 270.408 397.455 270.736 397.717C271.067 397.976 271.478 398.105 271.969 398.105ZM281.99 395.878V391.364H283.163V399H281.99V397.707H281.91C281.731 398.095 281.453 398.425 281.075 398.697C280.697 398.965 280.22 399.099 279.643 399.099C279.166 399.099 278.742 398.995 278.371 398.786C277.999 398.574 277.708 398.256 277.496 397.832C277.284 397.404 277.177 396.866 277.177 396.216V391.364H278.351V396.136C278.351 396.693 278.507 397.137 278.818 397.469C279.133 397.8 279.534 397.966 280.021 397.966C280.313 397.966 280.61 397.891 280.911 397.742C281.216 397.593 281.471 397.364 281.677 397.056C281.886 396.748 281.99 396.355 281.99 395.878ZM288.234 399.159C287.498 399.159 286.863 398.997 286.33 398.672C285.8 398.344 285.39 397.886 285.102 397.3C284.817 396.71 284.674 396.024 284.674 395.241C284.674 394.459 284.817 393.77 285.102 393.173C285.39 392.573 285.791 392.106 286.305 391.771C286.822 391.433 287.425 391.264 288.115 391.264C288.512 391.264 288.905 391.33 289.293 391.463C289.681 391.596 290.034 391.811 290.352 392.109C290.67 392.404 290.924 392.795 291.112 393.283C291.301 393.77 291.396 394.37 291.396 395.082V395.58H285.509V394.565H290.203C290.203 394.134 290.117 393.75 289.944 393.412C289.775 393.074 289.533 392.807 289.218 392.612C288.907 392.416 288.539 392.318 288.115 392.318C287.647 392.318 287.243 392.434 286.902 392.666C286.563 392.895 286.303 393.193 286.121 393.561C285.939 393.929 285.848 394.323 285.848 394.744V395.42C285.848 395.997 285.947 396.486 286.146 396.887C286.348 397.285 286.628 397.588 286.986 397.797C287.344 398.002 287.76 398.105 288.234 398.105C288.542 398.105 288.821 398.062 289.069 397.976C289.321 397.886 289.538 397.754 289.72 397.578C289.903 397.399 290.044 397.177 290.143 396.912L291.277 397.23C291.157 397.615 290.957 397.953 290.675 398.244C290.393 398.533 290.045 398.758 289.631 398.92C289.217 399.08 288.751 399.159 288.234 399.159ZM298.31 393.074L297.256 393.372C297.189 393.196 297.092 393.026 296.962 392.86C296.837 392.691 296.664 392.552 296.445 392.442C296.227 392.333 295.947 392.278 295.605 392.278C295.138 392.278 294.748 392.386 294.437 392.602C294.129 392.814 293.975 393.084 293.975 393.412C293.975 393.704 294.081 393.934 294.293 394.103C294.505 394.272 294.836 394.413 295.287 394.526L296.421 394.804C297.103 394.97 297.612 395.223 297.947 395.565C298.282 395.903 298.449 396.339 298.449 396.872C298.449 397.31 298.323 397.701 298.071 398.045C297.823 398.39 297.475 398.662 297.027 398.861C296.58 399.06 296.059 399.159 295.466 399.159C294.687 399.159 294.042 398.99 293.532 398.652C293.022 398.314 292.698 397.82 292.563 397.17L293.676 396.892C293.782 397.303 293.983 397.611 294.278 397.817C294.576 398.022 294.966 398.125 295.446 398.125C295.993 398.125 296.427 398.009 296.749 397.777C297.073 397.542 297.236 397.26 297.236 396.932C297.236 396.667 297.143 396.445 296.957 396.266C296.772 396.083 296.487 395.947 296.102 395.858L294.83 395.56C294.13 395.394 293.617 395.137 293.288 394.789C292.964 394.438 292.801 393.999 292.801 393.472C292.801 393.041 292.922 392.66 293.164 392.328C293.409 391.997 293.743 391.737 294.163 391.548C294.588 391.359 295.068 391.264 295.605 391.264C296.361 391.264 296.954 391.43 297.385 391.761C297.819 392.093 298.127 392.53 298.31 393.074ZM303.256 391.364V392.358H299.299V391.364H303.256ZM300.452 389.534H301.625V396.812C301.625 397.144 301.674 397.393 301.77 397.558C301.869 397.721 301.995 397.83 302.147 397.886C302.303 397.939 302.467 397.966 302.64 397.966C302.769 397.966 302.875 397.959 302.958 397.946C303.041 397.929 303.107 397.916 303.157 397.906L303.395 398.96C303.316 398.99 303.205 399.02 303.062 399.05C302.92 399.083 302.739 399.099 302.52 399.099C302.189 399.099 301.864 399.028 301.546 398.886C301.231 398.743 300.969 398.526 300.76 398.234C300.555 397.943 300.452 397.575 300.452 397.131V389.534ZM304.741 399V391.364H305.914V399H304.741ZM305.338 390.091C305.109 390.091 304.912 390.013 304.746 389.857C304.584 389.701 304.502 389.514 304.502 389.295C304.502 389.077 304.584 388.889 304.746 388.734C304.912 388.578 305.109 388.5 305.338 388.5C305.566 388.5 305.762 388.578 305.924 388.734C306.09 388.889 306.173 389.077 306.173 389.295C306.173 389.514 306.09 389.701 305.924 389.857C305.762 390.013 305.566 390.091 305.338 390.091ZM310.886 399.159C310.196 399.159 309.591 398.995 309.071 398.667C308.554 398.339 308.15 397.88 307.858 397.29C307.57 396.7 307.425 396.01 307.425 395.222C307.425 394.426 307.57 393.732 307.858 393.138C308.15 392.545 308.554 392.085 309.071 391.756C309.591 391.428 310.196 391.264 310.886 391.264C311.575 391.264 312.178 391.428 312.695 391.756C313.216 392.085 313.62 392.545 313.908 393.138C314.2 393.732 314.346 394.426 314.346 395.222C314.346 396.01 314.2 396.7 313.908 397.29C313.62 397.88 313.216 398.339 312.695 398.667C312.178 398.995 311.575 399.159 310.886 399.159ZM310.886 398.105C311.409 398.105 311.84 397.971 312.178 397.702C312.516 397.434 312.767 397.081 312.929 396.643C313.091 396.206 313.173 395.732 313.173 395.222C313.173 394.711 313.091 394.236 312.929 393.795C312.767 393.354 312.516 392.998 312.178 392.726C311.84 392.454 311.409 392.318 310.886 392.318C310.362 392.318 309.931 392.454 309.593 392.726C309.255 392.998 309.005 393.354 308.842 393.795C308.68 394.236 308.599 394.711 308.599 395.222C308.599 395.732 308.68 396.206 308.842 396.643C309.005 397.081 309.255 397.434 309.593 397.702C309.931 397.971 310.362 398.105 310.886 398.105ZM317.03 394.406V399H315.857V391.364H316.99V392.557H317.09C317.269 392.169 317.541 391.857 317.905 391.622C318.27 391.384 318.74 391.264 319.317 391.264C319.834 391.264 320.287 391.37 320.674 391.582C321.062 391.791 321.364 392.109 321.579 392.537C321.795 392.961 321.902 393.498 321.902 394.148V399H320.729V394.227C320.729 393.627 320.573 393.16 320.262 392.825C319.95 392.487 319.523 392.318 318.979 392.318C318.604 392.318 318.27 392.399 317.975 392.562C317.683 392.724 317.453 392.961 317.284 393.273C317.115 393.584 317.03 393.962 317.03 394.406ZM329.175 393.074L328.121 393.372C328.055 393.196 327.957 393.026 327.828 392.86C327.702 392.691 327.53 392.552 327.311 392.442C327.092 392.333 326.812 392.278 326.471 392.278C326.004 392.278 325.614 392.386 325.303 392.602C324.994 392.814 324.84 393.084 324.84 393.412C324.84 393.704 324.946 393.934 325.158 394.103C325.37 394.272 325.702 394.413 326.153 394.526L327.286 394.804C327.969 394.97 328.478 395.223 328.812 395.565C329.147 395.903 329.315 396.339 329.315 396.872C329.315 397.31 329.189 397.701 328.937 398.045C328.688 398.39 328.34 398.662 327.893 398.861C327.445 399.06 326.925 399.159 326.332 399.159C325.553 399.159 324.908 398.99 324.398 398.652C323.887 398.314 323.564 397.82 323.428 397.17L324.542 396.892C324.648 397.303 324.848 397.611 325.143 397.817C325.442 398.022 325.831 398.125 326.312 398.125C326.859 398.125 327.293 398.009 327.614 397.777C327.939 397.542 328.102 397.26 328.102 396.932C328.102 396.667 328.009 396.445 327.823 396.266C327.637 396.083 327.352 395.947 326.968 395.858L325.695 395.56C324.996 395.394 324.482 395.137 324.154 394.789C323.829 394.438 323.667 393.999 323.667 393.472C323.667 393.041 323.788 392.66 324.03 392.328C324.275 391.997 324.608 391.737 325.029 391.548C325.453 391.359 325.934 391.264 326.471 391.264C327.227 391.264 327.82 391.43 328.251 391.761C328.685 392.093 328.993 392.53 329.175 393.074Z" fill="#130E30"/>
<path d="M349.121 399V398.105L352.482 394.426C352.876 393.995 353.201 393.621 353.456 393.303C353.712 392.981 353.9 392.679 354.023 392.398C354.149 392.113 354.212 391.814 354.212 391.503C354.212 391.145 354.126 390.835 353.953 390.573C353.784 390.311 353.552 390.109 353.257 389.967C352.962 389.824 352.631 389.753 352.263 389.753C351.872 389.753 351.531 389.834 351.239 389.996C350.951 390.156 350.727 390.379 350.568 390.668C350.412 390.956 350.334 391.294 350.334 391.682H349.161C349.161 391.085 349.298 390.562 349.574 390.111C349.849 389.66 350.223 389.309 350.697 389.057C351.174 388.805 351.71 388.679 352.303 388.679C352.899 388.679 353.428 388.805 353.889 389.057C354.35 389.309 354.711 389.648 354.973 390.076C355.234 390.504 355.365 390.979 355.365 391.503C355.365 391.877 355.297 392.244 355.162 392.602C355.029 392.956 354.797 393.352 354.466 393.79C354.137 394.224 353.682 394.754 353.098 395.381L350.811 397.827V397.906H355.544V399H349.121ZM360.559 388.679C360.977 388.682 361.394 388.762 361.812 388.918C362.23 389.073 362.611 389.332 362.955 389.693C363.3 390.051 363.577 390.54 363.786 391.16C363.994 391.78 364.099 392.557 364.099 393.491C364.099 394.396 364.013 395.2 363.84 395.903C363.671 396.602 363.426 397.192 363.105 397.673C362.786 398.153 362.399 398.518 361.941 398.766C361.487 399.015 360.973 399.139 360.4 399.139C359.83 399.139 359.321 399.027 358.874 398.801C358.43 398.572 358.065 398.256 357.78 397.852C357.498 397.444 357.318 396.972 357.238 396.435H358.451C358.561 396.902 358.778 397.288 359.102 397.593C359.431 397.895 359.863 398.045 360.4 398.045C361.186 398.045 361.805 397.702 362.259 397.016C362.717 396.33 362.945 395.361 362.945 394.108H362.866C362.68 394.386 362.46 394.627 362.205 394.829C361.95 395.031 361.666 395.187 361.355 395.296C361.043 395.406 360.712 395.46 360.36 395.46C359.777 395.46 359.242 395.316 358.754 395.028C358.271 394.736 357.883 394.337 357.591 393.83C357.303 393.319 357.159 392.736 357.159 392.08C357.159 391.456 357.298 390.886 357.576 390.369C357.858 389.849 358.252 389.435 358.759 389.126C359.27 388.818 359.87 388.669 360.559 388.679ZM360.559 389.773C360.142 389.773 359.765 389.877 359.431 390.086C359.099 390.291 358.836 390.57 358.64 390.921C358.448 391.269 358.352 391.655 358.352 392.08C358.352 392.504 358.445 392.89 358.63 393.238C358.819 393.583 359.076 393.858 359.401 394.063C359.729 394.265 360.102 394.366 360.519 394.366C360.834 394.366 361.128 394.305 361.399 394.183C361.671 394.057 361.908 393.886 362.11 393.67C362.316 393.452 362.477 393.205 362.593 392.93C362.709 392.651 362.767 392.361 362.767 392.06C362.767 391.662 362.67 391.289 362.478 390.941C362.289 390.593 362.027 390.311 361.693 390.096C361.361 389.88 360.983 389.773 360.559 389.773Z" fill="#130E30"/>
<path d="M443.177 359L456.188 333.261V333.034H441.188V329.909H459.824V333.205L446.87 359H443.177ZM472.553 359.398C471.36 359.379 470.167 359.152 468.974 358.716C467.781 358.28 466.692 357.546 465.707 356.514C464.722 355.473 463.931 354.066 463.335 352.295C462.738 350.515 462.44 348.28 462.44 345.591C462.44 343.015 462.681 340.733 463.164 338.744C463.647 336.746 464.348 335.065 465.266 333.702C466.185 332.329 467.293 331.287 468.59 330.577C469.897 329.866 471.37 329.511 473.008 329.511C474.637 329.511 476.085 329.838 477.354 330.491C478.633 331.135 479.674 332.035 480.479 333.19C481.284 334.346 481.805 335.676 482.042 337.182H478.576C478.254 335.875 477.629 334.791 476.701 333.929C475.773 333.067 474.542 332.636 473.008 332.636C470.754 332.636 468.978 333.616 467.681 335.577C466.393 337.537 465.745 340.288 465.735 343.83H465.962C466.493 343.025 467.122 342.338 467.852 341.77C468.59 341.192 469.405 340.747 470.295 340.435C471.185 340.122 472.127 339.966 473.121 339.966C474.788 339.966 476.313 340.383 477.695 341.216C479.078 342.04 480.186 343.181 481.019 344.639C481.853 346.088 482.269 347.75 482.269 349.625C482.269 351.424 481.867 353.072 481.062 354.568C480.257 356.055 479.125 357.239 477.667 358.119C476.218 358.991 474.513 359.417 472.553 359.398ZM472.553 356.273C473.746 356.273 474.817 355.974 475.763 355.378C476.72 354.781 477.473 353.981 478.022 352.977C478.581 351.973 478.86 350.856 478.86 349.625C478.86 348.422 478.59 347.329 478.05 346.344C477.52 345.349 476.786 344.559 475.849 343.972C474.921 343.384 473.86 343.091 472.667 343.091C471.767 343.091 470.929 343.271 470.153 343.631C469.376 343.981 468.694 344.464 468.107 345.08C467.53 345.695 467.075 346.401 466.744 347.196C466.412 347.982 466.246 348.811 466.246 349.682C466.246 350.837 466.516 351.917 467.056 352.92C467.605 353.924 468.353 354.734 469.3 355.349C470.257 355.965 471.341 356.273 472.553 356.273ZM501.085 353.545V352.011C501.085 350.951 501.302 349.98 501.738 349.099C502.183 348.209 502.827 347.499 503.67 346.969C504.522 346.429 505.554 346.159 506.766 346.159C507.998 346.159 509.03 346.429 509.863 346.969C510.696 347.499 511.326 348.209 511.752 349.099C512.178 349.98 512.391 350.951 512.391 352.011V353.545C512.391 354.606 512.174 355.581 511.738 356.472C511.312 357.352 510.677 358.062 509.835 358.602C509.001 359.133 507.979 359.398 506.766 359.398C505.535 359.398 504.498 359.133 503.656 358.602C502.813 358.062 502.174 357.352 501.738 356.472C501.302 355.581 501.085 354.606 501.085 353.545ZM503.982 352.011V353.545C503.982 354.426 504.191 355.217 504.607 355.918C505.024 356.609 505.744 356.955 506.766 356.955C507.761 356.955 508.462 356.609 508.869 355.918C509.285 355.217 509.494 354.426 509.494 353.545V352.011C509.494 351.131 509.295 350.345 508.897 349.653C508.499 348.953 507.789 348.602 506.766 348.602C505.772 348.602 505.057 348.953 504.622 349.653C504.195 350.345 503.982 351.131 503.982 352.011ZM486.596 336.898V335.364C486.596 334.303 486.814 333.332 487.249 332.452C487.695 331.562 488.338 330.851 489.181 330.321C490.034 329.781 491.066 329.511 492.278 329.511C493.509 329.511 494.541 329.781 495.374 330.321C496.208 330.851 496.837 331.562 497.264 332.452C497.69 333.332 497.903 334.303 497.903 335.364V336.898C497.903 337.958 497.685 338.934 497.249 339.824C496.823 340.705 496.189 341.415 495.346 341.955C494.513 342.485 493.49 342.75 492.278 342.75C491.047 342.75 490.01 342.485 489.167 341.955C488.324 341.415 487.685 340.705 487.249 339.824C486.814 338.934 486.596 337.958 486.596 336.898ZM489.494 335.364V336.898C489.494 337.778 489.702 338.569 490.119 339.27C490.535 339.961 491.255 340.307 492.278 340.307C493.272 340.307 493.973 339.961 494.38 339.27C494.797 338.569 495.005 337.778 495.005 336.898V335.364C495.005 334.483 494.806 333.697 494.409 333.006C494.011 332.305 493.301 331.955 492.278 331.955C491.284 331.955 490.569 332.305 490.133 333.006C489.707 333.697 489.494 334.483 489.494 335.364ZM487.676 359L507.676 329.909H510.914L490.914 359H487.676Z" fill="#130E30"/>
<path d="M478 285C490.776 285 503.208 289.147 513.425 296.819C523.642 304.49 531.093 315.27 534.657 327.54C538.222 339.809 537.707 352.903 533.191 364.855C528.675 376.807 520.401 386.969 509.614 393.815C498.826 400.661 486.108 403.821 473.371 402.818C460.634 401.816 448.566 396.706 438.983 388.257C429.399 379.807 422.817 368.475 420.226 355.964C417.635 343.453 419.175 330.439 424.615 318.879" stroke="#59E25D" stroke-width="12"/>
<path d="M424.615 318.879C429.382 308.749 436.933 300.184 446.386 294.185C455.839 288.186 466.804 285 478 285" stroke="#3A93FF" stroke-width="12"/>
</g>
<defs>
<filter id="filter0_d_15504_15447" x="147" y="251" width="434" height="190" filterUnits="userSpaceOnUse" color-interpolation-filters="sRGB">
<feFlood flood-opacity="0" result="BackgroundImageFix"/>
<feColorMatrix in="SourceAlpha" type="matrix" values="0 0 0 0 0 0 0 0 0 0 0 0 0 0 0 0 0 0 127 0" result="hardAlpha"/>
<feOffset dy="2"/>
<feGaussianBlur stdDeviation="3"/>
<feComposite in2="hardAlpha" operator="out"/>
<feColorMatrix type="matrix" values="0 0 0 0 0.105882 0 0 0 0 0.141176 0 0 0 0 0.172549 0 0 0 0.1 0"/>
<feBlend mode="normal" in2="BackgroundImageFix" result="effect1_dropShadow_15504_15447"/>
<feBlend mode="normal" in="SourceGraphic" in2="effect1_dropShadow_15504_15447" result="shape"/>
</filter>
</defs>
</svg>
